  0
SECTION
  2
HEADER
  9
$ACADVER
  1
AC1015
  9
$ACADMAINTVER
 70
     6
  9
$DWGCODEPAGE
  3
ANSI_1252
  9
$INSBASE
 10
0.0
 20
0.0
 30
0.0
  9
$EXTMIN
 10
-2.25
 20
-1.25
 30
0.0
  9
$EXTMAX
 10
2.25
 20
1.25
 30
0.0
  9
$LIMMIN
 10
0.0
 20
0.0
  9
$LIMMAX
 10
12.0
 20
9.0
  9
$ORTHOMODE
 70
     0
  9
$REGENMODE
 70
     1
  9
$FILLMODE
 70
     1
  9
$QTEXTMODE
 70
     0
  9
$MIRRTEXT
 70
     1
  9
$LTSCALE
 40
1.0
  9
$ATTMODE
 70
     1
  9
$TEXTSIZE
 40
0.1377952756
  9
$TRACEWID
 40
0.05
  9
$TEXTSTYLE
  7
Standard
  9
$CLAYER
  8
0
  9
$CELTYPE
  6
ByLayer
  9
$CECOLOR
 62
   256
  9
$CELTSCALE
 40
1.0
  9
$DISPSILH
 70
     0
  9
$DIMSCALE
 40
1.0
  9
$DIMASZ
 40
0.13
  9
$DIMEXO
 40
0.0
  9
$DIMDLI
 40
0.38
  9
$DIMRND
 40
0.0
  9
$DIMDLE
 40
0.0
  9
$DIMEXE
 40
0.125
  9
$DIMTP
 40
0.0
  9
$DIMTM
 40
0.0
  9
$DIMTXT
 40
0.1377952756
  9
$DIMCEN
 40
0.09
  9
$DIMTSZ
 40
0.0
  9
$DIMTOL
 70
     0
  9
$DIMLIM
 70
     0
  9
$DIMTIH
 70
     1
  9
$DIMTOH
 70
     1
  9
$DIMSE1
 70
     0
  9
$DIMSE2
 70
     0
  9
$DIMTAD
 70
     1
  9
$DIMZIN
 70
     1
  9
$DIMBLK
  1

  9
$DIMASO
 70
     1
  9
$DIMSHO
 70
     1
  9
$DIMPOST
  1

  9
$DIMAPOST
  1

  9
$DIMALT
 70
     0
  9
$DIMALTD
 70
     2
  9
$DIMALTF
 40
25.4
  9
$DIMLFAC
 40
1.0
  9
$DIMTOFL
 70
     0
  9
$DIMTVP
 40
0.0
  9
$DIMTIX
 70
     0
  9
$DIMSOXD
 70
     0
  9
$DIMSAH
 70
     0
  9
$DIMBLK1
  1

  9
$DIMBLK2
  1

  9
$DIMSTYLE
  2
Standard
  9
$DIMCLRD
 70
     0
  9
$DIMCLRE
 70
     0
  9
$DIMCLRT
 70
     0
  9
$DIMTFAC
 40
1.0
  9
$DIMGAP
 40
0.06
  9
$DIMJUST
 70
     0
  9
$DIMSD1
 70
     0
  9
$DIMSD2
 70
     0
  9
$DIMTOLJ
 70
     1
  9
$DIMTZIN
 70
     1
  9
$DIMALTZ
 70
     0
  9
$DIMALTTZ
 70
     0
  9
$DIMUPT
 70
     0
  9
$DIMDEC
 70
     2
  9
$DIMTDEC
 70
     2
  9
$DIMALTU
 70
     2
  9
$DIMALTTD
 70
     2
  9
$DIMTXSTY
  7
Standard
  9
$DIMAUNIT
 70
     0
  9
$DIMADEC
 70
     2
  9
$DIMALTRND
 40
0.0
  9
$DIMAZIN
 70
     0
  9
$DIMDSEP
 70
    46
  9
$DIMATFIT
 70
     3
  9
$DIMFRAC
 70
     0
  9
$DIMLDRBLK
  1

  9
$DIMLUNIT
 70
     2
  9
$DIMLWD
 70
    -2
  9
$DIMLWE
 70
    -2
  9
$DIMTMOVE
 70
     0
  9
$LUNITS
 70
     2
  9
$LUPREC
 70
     4
  9
$SKETCHINC
 40
0.1
  9
$FILLETRAD
 40
0.0
  9
$AUNITS
 70
     0
  9
$AUPREC
 70
     6
  9
$MENU
  1
.
  9
$ELEVATION
 40
0.0
  9
$PELEVATION
 40
0.0
  9
$THICKNESS
 40
0.0
  9
$LIMCHECK
 70
     0
  9
$CHAMFERA
 40
0.0
  9
$CHAMFERB
 40
0.0
  9
$CHAMFERC
 40
0.0
  9
$CHAMFERD
 40
0.0
  9
$SKPOLY
 70
     0
  9
$TDCREATE
 40
2460641.668633507
  9
$TDUCREATE
 40
2460641.918633507
  9
$TDUPDATE
 40
2460641.668705105
  9
$TDUUPDATE
 40
2460641.918705105
  9
$TDINDWG
 40
0.0000000116
  9
$TDUSRTIMER
 40
0.0000000116
  9
$USRTIMER
 70
     1
  9
$ANGBASE
 50
0.0
  9
$ANGDIR
 70
     0
  9
$PDMODE
 70
     0
  9
$PDSIZE
 40
-1.0
  9
$PLINEWID
 40
0.0
  9
$SPLFRAME
 70
     0
  9
$SPLINETYPE
 70
     6
  9
$SPLINESEGS
 70
     8
  9
$HANDSEED
  5
112
  9
$SURFTAB1
 70
     6
  9
$SURFTAB2
 70
     6
  9
$SURFTYPE
 70
     6
  9
$SURFU
 70
     6
  9
$SURFV
 70
     6
  9
$UCSBASE
  2

  9
$UCSNAME
  2

  9
$UCSORG
 10
0.0
 20
0.0
 30
0.0
  9
$UCSXDIR
 10
1.0
 20
0.0
 30
0.0
  9
$UCSYDIR
 10
0.0
 20
1.0
 30
0.0
  9
$UCSORTHOREF
  2

  9
$UCSORTHOVIEW
 70
     0
  9
$UCSORGTOP
 10
0.0
 20
0.0
 30
0.0
  9
$UCSORGBOTTOM
 10
0.0
 20
0.0
 30
0.0
  9
$UCSORGLEFT
 10
0.0
 20
0.0
 30
0.0
  9
$UCSORGRIGHT
 10
0.0
 20
0.0
 30
0.0
  9
$UCSORGFRONT
 10
0.0
 20
0.0
 30
0.0
  9
$UCSORGBACK
 10
0.0
 20
0.0
 30
0.0
  9
$PUCSBASE
  2

  9
$PUCSNAME
  2

  9
$PUCSORG
 10
0.0
 20
0.0
 30
0.0
  9
$PUCSXDIR
 10
1.0
 20
0.0
 30
0.0
  9
$PUCSYDIR
 10
0.0
 20
1.0
 30
0.0
  9
$PUCSORTHOREF
  2

  9
$PUCSORTHOVIEW
 70
     0
  9
$PUCSORGTOP
 10
0.0
 20
0.0
 30
0.0
  9
$PUCSORGBOTTOM
 10
0.0
 20
0.0
 30
0.0
  9
$PUCSORGLEFT
 10
0.0
 20
0.0
 30
0.0
  9
$PUCSORGRIGHT
 10
0.0
 20
0.0
 30
0.0
  9
$PUCSORGFRONT
 10
0.0
 20
0.0
 30
0.0
  9
$PUCSORGBACK
 10
0.0
 20
0.0
 30
0.0
  9
$USERI1
 70
     0
  9
$USERI2
 70
     0
  9
$USERI3
 70
     0
  9
$USERI4
 70
     0
  9
$USERI5
 70
     0
  9
$USERR1
 40
0.0
  9
$USERR2
 40
0.0
  9
$USERR3
 40
0.0
  9
$USERR4
 40
0.0
  9
$USERR5
 40
0.0
  9
$WORLDVIEW
 70
     1
  9
$SHADEDGE
 70
     3
  9
$SHADEDIF
 70
    70
  9
$TILEMODE
 70
     1
  9
$MAXACTVP
 70
    64
  9
$PINSBASE
 10
0.0
 20
0.0
 30
0.0
  9
$PLIMCHECK
 70
     0
  9
$PEXTMIN
 10
1.0000000000E+20
 20
1.0000000000E+20
 30
1.0000000000E+20
  9
$PEXTMAX
 10
-1.0000000000E+20
 20
-1.0000000000E+20
 30
-1.0000000000E+20
  9
$PLIMMIN
 10
0.0
 20
0.0
  9
$PLIMMAX
 10
12.0
 20
9.0
  9
$UNITMODE
 70
     0
  9
$VISRETAIN
 70
     1
  9
$PLINEGEN
 70
     0
  9
$PSLTSCALE
 70
     1
  9
$TREEDEPTH
 70
  3020
  9
$CMLSTYLE
  2
Standard
  9
$CMLJUST
 70
     0
  9
$CMLSCALE
 40
1.0
  9
$PROXYGRAPHICS
 70
     1
  9
$MEASUREMENT
 70
     0
  9
$CELWEIGHT
370
    -1
  9
$ENDCAPS
280
     0
  9
$JOINSTYLE
280
     0
  9
$LWDISPLAY
290
     1
  9
$INSUNITS
 70
     1
  9
$HYPERLINKBASE
  1

  9
$STYLESHEET
  1

  9
$XEDIT
290
     1
  9
$CEPSNTYPE
380
     0
  9
$PSTYLEMODE
290
     1
  9
$FINGERPRINTGUID
  2
{150826ef-00d3-491c-a7e4-55b380e00f72}
  9
$VERSIONGUID
  2
{FAEB1C32-E019-11D5-929B-00C0DF256EC4}
  9
$EXTNAMES
290
     1
  9
$PSVPSCALE
 40
0.0
  9
$OLESTARTUP
290
     0
  0
ENDSEC
  0
SECTION
  2
CLASSES
  0
CLASS
  1
ACDBDICTIONARYWDFLT
  2
AcDbDictionaryWithDefault
  3
ObjectDBX Classes
 90
        0
280
     0
281
     0
  0
CLASS
  1
VISUALSTYLE
  2
AcDbVisualStyle
  3
ObjectDBX Classes
 90
     4095
280
     0
281
     0
  0
CLASS
  1
MATERIAL
  2
AcDbMaterial
  3
ObjectDBX Classes
 90
     1153
280
     0
281
     0
  0
CLASS
  1
SCALE
  2
AcDbScale
  3
ObjectDBX Classes
 90
     1153
280
     0
281
     0
  0
CLASS
  1
TABLESTYLE
  2
AcDbTableStyle
  3
ObjectDBX Classes
 90
     4095
280
     0
281
     0
  0
CLASS
  1
MLEADERSTYLE
  2
AcDbMLeaderStyle
  3
ACDB_MLEADERSTYLE_CLASS
 90
     4095
280
     0
281
     0
  0
CLASS
  1
SUN
  2
AcDbSun
  3
SCENEOE
 90
     1153
280
     0
281
     0
  0
CLASS
  1
ACDBPLACEHOLDER
  2
AcDbPlaceHolder
  3
ObjectDBX Classes
 90
        0
280
     0
281
     0
  0
CLASS
  1
LAYOUT
  2
AcDbLayout
  3
ObjectDBX Classes
 90
        0
280
     0
281
     0
  0
ENDSEC
  0
SECTION
  2
TABLES
  0
TABLE
  2
VPORT
  5
8
330
0
100
AcDbSymbolTable
 70
     1
  0
VPORT
  5
29
330
8
100
AcDbSymbolTableRecord
100
AcDbViewportTableRecord
  2
*Active
 70
     0
 10
0.0
 20
0.0
 11
1.0
 21
1.0
 12
0.0
 22
0.0
 13
0.0
 23
0.0
 14
0.5
 24
0.5
 15
0.5
 25
0.5
 16
0.0
 26
0.0
 36
1.0
 17
0.0
 27
0.0
 37
0.0
 40
2.55
 41
1.8
 42
50.0
 43
0.0
 44
0.0
 50
0.0
 51
0.0
 71
     0
 72
   100
 73
     1
 74
     3
 75
     0
 76
     0
 77
     0
 78
     0
281
     0
 65
     1
110
0.0
120
0.0
130
0.0
111
1.0
121
0.0
131
0.0
112
0.0
122
1.0
132
0.0
 79
     0
146
0.0
  0
ENDTAB
  0
TABLE
  2
LTYPE
  5
5
330
0
100
AcDbSymbolTable
 70
     6
  0
LTYPE
  5
14
330
5
100
AcDbSymbolTableRecord
100
AcDbLinetypeTableRecord
  2
ByBlock
 70
     0
  3

 72
    65
 73
     0
 40
0.0
  0
LTYPE
  5
15
330
5
100
AcDbSymbolTableRecord
100
AcDbLinetypeTableRecord
  2
ByLayer
 70
     0
  3

 72
    65
 73
     0
 40
0.0
  0
LTYPE
  5
16
330
5
100
AcDbSymbolTableRecord
100
AcDbLinetypeTableRecord
  2
Continuous
 70
     0
  3
Solid line
 72
    65
 73
     0
 40
0.0
  0
LTYPE
  5
5E
330
5
100
AcDbSymbolTableRecord
100
AcDbLinetypeTableRecord
  2
HIDDEN
 70
     0
  3
Hidden __ __ __ __ __ __ __ __ __ __ __ __ __ __
 72
    65
 73
     2
 40
0.075
 49
0.05
 74
     0
 49
-0.025
 74
     0
  0
LTYPE
  5
5F
330
5
100
AcDbSymbolTableRecord
100
AcDbLinetypeTableRecord
  2
PHANTOM
 70
     0
  3
Phantom ______  __  __  ______  __  __  ______
 72
    65
 73
     6
 40
0.5
 49
0.25
 74
     0
 49
-0.05
 74
     0
 49
0.05
 74
     0
 49
-0.05
 74
     0
 49
0.05
 74
     0
 49
-0.05
 74
     0
  0
LTYPE
  5
60
330
5
100
AcDbSymbolTableRecord
100
AcDbLinetypeTableRecord
  2
CENTER
 70
     0
  3
Center ____ _ ____ _ ____ _ ____ _ ____ _ ____
 72
    65
 73
     4
 40
0.4
 49
0.25
 74
     0
 49
-0.05
 74
     0
 49
0.05
 74
     0
 49
-0.05
 74
     0
  0
LTYPE
  5
61
330
5
100
AcDbSymbolTableRecord
100
AcDbLinetypeTableRecord
  2
CENTERX2
 70
     0
  3
Center (2x) ________  __  ________  __  _____
 72
    65
 73
     4
 40
0.8
 49
0.5
 74
     0
 49
-0.1
 74
     0
 49
0.1
 74
     0
 49
-0.1
 74
     0
  0
LTYPE
  5
62
330
5
100
AcDbSymbolTableRecord
100
AcDbLinetypeTableRecord
  2
DOT2
 70
     0
  3
Dot (.5x) ........................................
 72
    65
 73
     2
 40
0.025
 49
0.0
 74
     0
 49
-0.025
 74
     0
  0
ENDTAB
  0
TABLE
  2
LAYER
  5
2
330
0
100
AcDbSymbolTable
 70
     1
  0
LAYER
  5
10
330
2
100
AcDbSymbolTableRecord
100
AcDbLayerTableRecord
  2
0
 70
     0
 62
     7
  6
Continuous
370
    -3
390
F
  0
ENDTAB
  0
TABLE
  2
STYLE
  5
3
330
0
100
AcDbSymbolTable
 70
     2
  0
STYLE
  5
11
330
3
100
AcDbSymbolTableRecord
100
AcDbTextStyleTableRecord
  2
Standard
 70
     0
 40
0.0
 41
1.0
 50
0.0
 71
     0
 42
0.1377952756
  3
txt
  4

  0
STYLE
  5
10E
330
3
100
AcDbSymbolTableRecord
100
AcDbTextStyleTableRecord
  2
SLDTEXTSTYLE0
 70
     0
 40
0.0
 41
0.7
 50
0.0
 71
     0
 42
0.1377952756
  3
TXT
  4

  0
ENDTAB
  0
TABLE
  2
VIEW
  5
6
330
0
100
AcDbSymbolTable
 70
     0
  0
ENDTAB
  0
TABLE
  2
UCS
  5
7
330
0
100
AcDbSymbolTable
 70
     0
  0
ENDTAB
  0
TABLE
  2
APPID
  5
9
330
0
100
AcDbSymbolTable
 70
     1
  0
APPID
  5
12
330
9
100
AcDbSymbolTableRecord
100
AcDbRegAppTableRecord
  2
ACAD
 70
     0
  0
ENDTAB
  0
TABLE
  2
DIMSTYLE
  5
A
330
0
100
AcDbSymbolTable
 70
     1
100
AcDbDimStyleTable
  0
DIMSTYLE
105
27
330
A
100
AcDbSymbolTableRecord
100
AcDbDimStyleTableRecord
  2
Standard
 70
     0
178
     0
340
11
  0
ENDTAB
  0
TABLE
  2
BLOCK_RECORD
  5
1
330
0
100
AcDbSymbolTable
 70
     1
  0
BLOCK_RECORD
  5
1F
330
1
100
AcDbSymbolTableRecord
100
AcDbBlockTableRecord
  2
*Model_Space
340
22
  0
BLOCK_RECORD
  5
1B
330
1
100
AcDbSymbolTableRecord
100
AcDbBlockTableRecord
  2
*Paper_Space
340
1E
  0
BLOCK_RECORD
  5
23
330
1
100
AcDbSymbolTableRecord
100
AcDbBlockTableRecord
  2
*Paper_Space0
340
26
  0
ENDTAB
  0
ENDSEC
  0
SECTION
  2
BLOCKS
  0
BLOCK
  5
20
330
1F
100
AcDbEntity
  8
0
100
AcDbBlockBegin
  2
*Model_Space
 70
     0
 10
0.0
 20
0.0
 30
0.0
  3
*Model_Space
  1

  0
ENDBLK
  5
21
330
1F
100
AcDbEntity
  8
0
100
AcDbBlockEnd
  0
BLOCK
  5
1C
330
1B
100
AcDbEntity
 67
     1
  8
0
100
AcDbBlockBegin
  2
*Paper_Space
 70
     0
 10
0.0
 20
0.0
 30
0.0
  3
*Paper_Space
  1

  0
ENDBLK
  5
1D
330
1B
100
AcDbEntity
 67
     1
  8
0
100
AcDbBlockEnd
  0
BLOCK
  5
24
330
23
100
AcDbEntity
  8
0
100
AcDbBlockBegin
  2
*Paper_Space0
 70
     0
 10
0.0
 20
0.0
 30
0.0
  3
*Paper_Space0
  1

  0
ENDBLK
  5
25
330
23
100
AcDbEntity
  8
0
100
AcDbBlockEnd
  0
ENDSEC
  0
SECTION
  2
ENTITIES
  0
SPLINE
  5
63
330
1F
100
AcDbEntity
  8
0
  6
Continuous
 62
     7
370
    25
100
AcDbSpline
210
0.0
220
0.0
230
1.0
 70
     8
 71
     3
 72
    23
 73
    19
 74
     0
 42
0.00000001
 43
0.00000001
 40
0.0
 40
0.0
 40
0.0
 40
0.0
 40
0.0976013336833507
 40
0.1837221431846323
 40
0.2605982581305732
 40
0.3297478017730175
 40
0.3871688925591801
 40
0.437862700678998
 40
0.4812628271185371
 40
0.5179062940031498
 40
0.554651407315716
 40
0.5948155370852727
 40
0.643078227385184
 40
0.6974978539067025
 40
0.7601678245551061
 40
0.8304674878337761
 40
0.9112241060492926
 40
1.0
 40
1.0
 40
1.0
 40
1.0
 10
-1.481250000000001
 20
0.2520220588235292
 30
0.0
 10
-1.479845707400055
 20
0.2561717245235977
 30
0.0
 10
-1.477202304524461
 20
0.2639829443824345
 30
0.0
 10
-1.474300991094774
 20
0.2753190064745485
 30
0.0
 10
-1.472056417485871
 20
0.2854895619721925
 30
0.0
 10
-1.470476969588089
 20
0.2944908158111764
 30
0.0
 10
-1.470050106217092
 20
0.3024605318122041
 30
0.0
 10
-1.470612719597685
 20
0.309244576990787
 30
0.0
 10
-1.47173127250278
 20
0.3150393059761981
 30
0.0
 10
-1.474069221956795
 20
0.3198116364252837
 30
0.0
 10
-1.477568252121843
 20
0.3235929983227792
 30
0.0
 10
-1.482214114628994
 20
0.3268090451024827
 30
0.0
 10
-1.488077916567489
 20
0.3294582910391816
 30
0.0
 10
-1.495175156464542
 20
0.33167819428373
 30
0.0
 10
-1.503454649024363
 20
0.3332040703429492
 30
0.0
 10
-1.512951754568088
 20
0.3345557799137364
 30
0.0
 10
-1.523703529568232
 20
0.3352321790272867
 30
0.0
 10
-1.531310643653393
 20
0.3352728304716895
 30
0.0
 10
-1.53529411764706
 20
0.3352941176470586
 30
0.0
  0
LINE
  5
64
330
1F
100
AcDbEntity
  8
0
  6
Continuous
 62
     7
370
    25
100
AcDbLine
 10
-1.5352941176
 20
0.3352941176
 30
0.0
 11
-1.6229779412
 21
0.0770220588
 31
0.0
  0
SPLINE
  5
65
330
1F
100
AcDbEntity
  8
0
  6
Continuous
 62
     7
370
    25
100
AcDbSpline
210
0.0
220
0.0
230
1.0
 70
     8
 71
     3
 72
     9
 73
     5
 74
     0
 42
0.00000001
 43
0.00000001
 40
0.0
 40
0.0
 40
0.0
 40
0.0
 40
0.5340910068325295
 40
1.0
 40
1.0
 40
1.0
 40
1.0
 10
-1.622977941176471
 20
0.0770220588235292
 30
0.0
 10
-1.619608242590483
 20
0.0768855413263844
 30
0.0
 10
-1.613299020860701
 20
0.0766299341444652
 30
0.0
 10
-1.606985598092454
 20
0.0765212330518912
 30
0.0
 10
-1.604044117647059
 20
0.0764705882352939
 30
0.0
  0
SPLINE
  5
66
330
1F
100
AcDbEntity
  8
0
  6
Continuous
 62
     7
370
    25
100
AcDbSpline
210
0.0
220
0.0
230
1.0
 70
     8
 71
     3
 72
    15
 73
    11
 74
     0
 42
0.00000001
 43
0.00000001
 40
0.0
 40
0.0
 40
0.0
 40
0.0
 40
0.1175720746896223
 40
0.2233869419102805
 40
0.3210163327893925
 40
0.4133728325810911
 40
0.5182227437810965
 40
0.6492261802233203
 40
0.8095477546268853
 40
1.0
 40
1.0
 40
1.0
 40
1.0
 10
-1.60404411764706
 20
0.076470588235294
 30
0.0
 10
-1.598391550821002
 20
0.0766632361374363
 30
0.0
 10
-1.587651673851493
 20
0.0770292671515068
 30
0.0
 10
-1.572456325593395
 20
0.080278808957521
 30
0.0
 10
-1.559388579686447
 20
0.0860716095660425
 30
0.0
 10
-1.547652617667769
 20
0.0942315578347095
 30
0.0
 10
-1.537467860027929
 20
0.1064694561068514
 30
0.0
 10
-1.527923688871359
 20
0.1229776172440377
 30
0.0
 10
-1.518200796536413
 20
0.1440262366936924
 30
0.0
 10
-1.512599850689074
 20
0.1599308077535673
 30
0.0
 10
-1.509558823529412
 20
0.1685661764705881
 30
0.0
  0
LINE
  5
67
330
1F
100
AcDbEntity
  8
0
  6
Continuous
 62
     7
370
    25
100
AcDbLine
 10
-1.5095588235
 20
0.1685661765
 30
0.0
 11
-1.48125
 21
0.2520220588
 31
0.0
  0
LINE
  5
68
330
1F
100
AcDbEntity
  8
0
  6
Continuous
 62
     7
370
    25
100
AcDbLine
 10
-0.4469852941
 20
-0.1470588235
 30
0.0
 11
-0.3545220588
 21
-0.1470588235
 31
0.0
  0
SPLINE
  5
69
330
1F
100
AcDbEntity
  8
0
  6
Continuous
 62
     7
370
    25
100
AcDbSpline
210
0.0
220
0.0
230
1.0
 70
     8
 71
     3
 72
    15
 73
    11
 74
     0
 42
0.00000001
 43
0.00000001
 40
0.0
 40
0.0
 40
0.0
 40
0.0
 40
0.1039175929589365
 40
0.2137028231361134
 40
0.3293559787436031
 40
0.451471397644832
 40
0.5793563350059886
 40
0.7137032869699664
 40
0.8539177628756703
 40
1.0
 40
1.0
 40
1.0
 40
1.0
 10
-0.3545220588235302
 20
-0.1470588235294119
 30
0.0
 10
-0.3507807359070837
 20
-0.1319861812067374
 30
0.0
 10
-0.3430868387839626
 20
-0.1009898299176037
 30
0.0
 10
-0.3312990637580938
 20
-0.0532013157417678
 30
0.0
 10
-0.3190877582352829
 20
-0.0027163468709226
 30
0.0
 10
-0.305675878000768
 20
0.050258466504928
 30
0.0
 10
-0.2922558459597518
 20
0.1061086882302131
 30
0.0
 10
-0.2776116741151071
 20
0.1644429397867383
 30
0.0
 10
-0.262577073312014
 20
0.2254820224530262
 30
0.0
 10
-0.2523748026884925
 20
0.2670336646017654
 30
0.0
 10
-0.2471691176470596
 20
0.2882352941176469
 30
0.0
  0
SPLINE
  5
6A
330
1F
100
AcDbEntity
  8
0
  6
Continuous
 62
     7
370
    25
100
AcDbSpline
210
0.0
220
0.0
230
1.0
 70
     8
 71
     3
 72
    23
 73
    19
 74
     0
 42
0.00000001
 43
0.00000001
 40
0.0
 40
0.0
 40
0.0
 40
0.0
 40
0.0832835850236997
 40
0.1638340446155672
 40
0.2419711527273092
 40
0.3168379951709698
 40
0.3889713533952512
 40
0.45869155212922
 40
0.5253299150857142
 40
0.5892066619232381
 40
0.6503500402419362
 40
0.7087317411414074
 40
0.7640309859645864
 40
0.8167572550454171
 40
0.8669107099543917
 40
0.9139545003883894
 40
0.958263694405106
 40
1.0
 40
1.0
 40
1.0
 40
1.0
 10
-0.2471691176470596
 20
0.2882352941176469
 30
0.0
 10
-0.252764262606481
 20
0.2761730006147868
 30
0.0
 10
-0.2637709361142503
 20
0.2524442630568242
 30
0.0
 10
-0.2796984035255449
 20
0.2172479878193104
 30
0.0
 10
-0.2952571850084562
 20
0.1833606043385315
 30
0.0
 10
-0.3104790288562495
 20
0.1507977644332742
 30
0.0
 10
-0.3247020520758476
 20
0.1192547472292318
 30
0.0
 10
-0.3387604645256763
 20
0.0890816134420601
 30
0.0
 10
-0.3518621481979691
 20
0.0599198965870772
 30
0.0
 10
-0.3649068386281577
 20
0.0322389194413212
 30
0.0
 10
-0.3768676368024093
 20
0.0055106447000988
 30
0.0
 10
-0.3887419551000235
 20
-0.0197502059015394
 30
0.0
 10
-0.3997434128961886
 20
-0.0439335423045168
 30
0.0
 10
-0.4102732712462909
 20
-0.066887613278094
 30
0.0
 10
-0.4200309250565977
 20
-0.0887460365012848
 30
0.0
 10
-0.42977425773448
 20
-0.1091311867534684
 30
0.0
 10
-0.4385378716701639
 20
-0.1284888924271242
 30
0.0
 10
-0.4442261829579049
 20
-0.1409934817688327
 30
0.0
 10
-0.4469852941176478
 20
-0.1470588235294119
 30
0.0
  0
SPLINE
  5
6B
330
1F
100
AcDbEntity
  8
0
  6
Continuous
 62
     7
370
    25
100
AcDbSpline
210
0.0
220
0.0
230
1.0
 70
     8
 71
     3
 72
    23
 73
    19
 74
     0
 42
0.00000001
 43
0.00000001
 40
0.0
 40
0.0
 40
0.0
 40
0.0
 40
0.091717714393159
 40
0.1742636573470047
 40
0.2479746280238219
 40
0.3134456309914254
 40
0.3697523070716719
 40
0.4164193120479057
 40
0.4549091960386762
 40
0.4851281377317306
 40
0.533477284538978
 40
0.5763879334284059
 40
0.6174167343958596
 40
0.6599993989946548
 40
0.7136975773486779
 40
0.7878384269707496
 40
0.8829825092343252
 40
0.9999999999999999
 40
0.9999999999999999
 40
0.9999999999999999
 40
0.9999999999999999
 10
-1.049747242647059
 20
-0.9034926470588235
 30
0.0
 10
-1.04917639868587
 20
-0.9017681446296629
 30
0.0
 10
-1.048091795159612
 20
-0.8984915900142575
 30
0.0
 10
-1.046492870499831
 20
-0.8938469288581611
 30
0.0
 10
-1.045251230988175
 20
-0.8896335271563679
 30
0.0
 10
-1.044176611624104
 20
-0.8859145146248965
 30
0.0
 10
-1.043209560469723
 20
-0.8827196426382463
 30
0.0
 10
-1.042601001890253
 20
-0.8799835318365928
 30
0.0
 10
-1.042108328672754
 20
-0.8777519650570375
 30
0.0
 10
-1.041793421178225
 20
-0.8754500093394053
 30
0.0
 10
-1.041833508177395
 20
-0.8730369384220876
 30
0.0
 10
-1.042390714496913
 20
-0.8704250349425847
 30
0.0
 10
-1.043892576801339
 20
-0.868353660755442
 30
0.0
 10
-1.046007948085801
 20
-0.8665979959584177
 30
0.0
 10
-1.049192061318604
 20
-0.8653483748076146
 30
0.0
 10
-1.053536253932234
 20
-0.8645118591336501
 30
0.0
 10
-1.059197130828371
 20
-0.8640486038096649
 30
0.0
 10
-1.063399241871863
 20
-0.8639983214290406
 30
0.0
 10
-1.065716911764706
 20
-0.8639705882352942
 30
0.0
  0
LINE
  5
6C
330
1F
100
AcDbEntity
  8
0
  6
Continuous
 62
     7
370
    25
100
AcDbLine
 10
-1.0657169118
 20
-0.8639705882
 30
0.0
 11
-1.1368910846
 21
-1.0735294118
 31
0.0
  0
SPLINE
  5
6D
330
1F
100
AcDbEntity
  8
0
  6
Continuous
 62
     7
370
    25
100
AcDbSpline
210
0.0
220
0.0
230
1.0
 70
     8
 71
     3
 72
    23
 73
    19
 74
     0
 42
0.00000001
 43
0.00000001
 40
0.0
 40
0.0
 40
0.0
 40
0.0
 40
0.0670737951040507
 40
0.1287270136354974
 40
0.1851733203799172
 40
0.2357424069693063
 40
0.2826981350245586
 40
0.3245217630863582
 40
0.3639534577747874
 40
0.3996264518558415
 40
0.4392837485999959
 40
0.4882132879252015
 40
0.5475275870349681
 40
0.6175073497010125
 40
0.6968580892955301
 40
0.7871333649097233
 40
0.8884132036924073
 40
1.0
 40
1.0
 40
1.0
 40
1.0
 10
-1.136891084558824
 20
-1.073529411764706
 30
0.0
 10
-1.135282083575184
 20
-1.073508767162145
 30
0.0
 10
-1.132194113210018
 20
-1.073469146352988
 30
0.0
 10
-1.127760744009969
 20
-1.073131571984838
 30
0.0
 10
-1.123755969148114
 20
-1.07255039287264
 30
0.0
 10
-1.120125502972805
 20
-1.071840213069338
 30
0.0
 10
-1.1169431259878
 20
-1.070799302233481
 30
0.0
 10
-1.114102394996648
 20
-1.069602292145067
 30
0.0
 10
-1.111707625505468
 20
-1.068121237417732
 30
0.0
 10
-1.109590873237336
 20
-1.066340992567183
 30
0.0
 10
-1.107705751734402
 20
-1.064016252010394
 30
0.0
 10
-1.105753678451761
 20
-1.061050745623148
 30
0.0
 10
-1.103704109058842
 20
-1.057293912064143
 30
0.0
 10
-1.101561813517787
 20
-1.052769800295338
 30
0.0
 10
-1.099243058200272
 20
-1.047509765321896
 30
0.0
 10
-1.09684630197849
 20
-1.041468331004415
 30
0.0
 10
-1.094330012103271
 20
-1.034645451778554
 30
0.0
 10
-1.092668077541284
 20
-1.029817280370925
 30
0.0
 10
-1.091796875
 20
-1.027286305147059
 30
0.0
  0
LINE
  5
6E
330
1F
100
AcDbEntity
  8
0
  6
Continuous
 62
     7
370
    25
100
AcDbLine
 10
-1.091796875
 20
-1.0272863051
 30
0.0
 11
-1.0497472426
 21
-0.9034926471
 31
0.0
  0
SPLINE
  5
6F
330
1F
100
AcDbEntity
  8
0
  6
Continuous
 62
     7
370
    25
100
AcDbSpline
210
0.0
220
0.0
230
1.0
 70
     8
 71
     3
 72
    15
 73
    11
 74
     0
 42
0.00000001
 43
0.00000001
 40
0.0
 40
0.0
 40
0.0
 40
0.0
 40
0.1781669415780353
 40
0.3180448943982632
 40
0.4248178073597929
 40
0.5078788094473219
 40
0.5910893812876004
 40
0.6972393658309267
 40
0.8328519466269126
 40
1.0
 40
1.0
 40
1.0
 40
1.0
 10
-0.7324793198529417
 20
-0.8882123161764707
 30
0.0
 10
-0.7317726328993197
 20
-0.8859483980086797
 30
0.0
 10
-0.7305111296398112
 20
-0.8819070892887569
 30
0.0
 10
-0.7295366556735525
 20
-0.876320988517487
 30
0.0
 10
-0.7296274387227294
 20
-0.871885702771783
 30
0.0
 10
-0.7311474261081322
 20
-0.8684128640733172
 30
0.0
 10
-0.7342480216098166
 20
-0.8663191766951616
 30
0.0
 10
-0.7383324269580778
 20
-0.8648665512336892
 30
0.0
 10
-0.7437516525376712
 20
-0.8641024077099416
 30
0.0
 10
-0.7477774424205912
 20
-0.8640174768525257
 30
0.0
 10
-0.7500000000000004
 20
-0.8639705882352942
 30
0.0
  0
LINE
  5
70
330
1F
100
AcDbEntity
  8
0
  6
Continuous
 62
     7
370
    25
100
AcDbLine
 10
-0.75
 20
-0.8639705882
 30
0.0
 11
-0.7737247243
 21
-0.9338235294
 31
0.0
  0
SPLINE
  5
71
330
1F
100
AcDbEntity
  8
0
  6
Continuous
 62
     7
370
    25
100
AcDbSpline
210
0.0
220
0.0
230
1.0
 70
     8
 71
     3
 72
    19
 73
    15
 74
     0
 42
0.00000001
 43
0.00000001
 40
0.0
 40
0.0
 40
0.0
 40
0.0
 40
0.1329234384224927
 40
0.2474223005323329
 40
0.346569846889314
 40
0.4315531484576668
 40
0.4740675484095904
 40
0.5222399501507115
 40
0.5797001108488956
 40
0.6449357330863132
 40
0.7196072721837417
 40
0.803429712091687
 40
0.8962024152512382
 40
1.0
 40
1.0
 40
1.0
 40
1.0
 10
-0.7737247242647063
 20
-0.9338235294117647
 30
0.0
 10
-0.7714812425314889
 20
-0.9337954240759329
 30
0.0
 10
-0.7673052490556758
 20
-0.9337431090972407
 30
0.0
 10
-0.7615014506467699
 20
-0.9329638701406694
 30
0.0
 10
-0.7565725995033644
 20
-0.931891477039818
 30
0.0
 10
-0.7529912915722136
 20
-0.9304724456512401
 30
0.0
 10
-0.7505021990202352
 20
-0.9288317866868219
 30
0.0
 10
-0.7487712082253587
 20
-0.9270111023314372
 30
0.0
 10
-0.746998885896486
 20
-0.9247341193684135
 30
0.0
 10
-0.7453053788275071
 20
-0.9218616235441182
 30
0.0
 10
-0.7435185657154896
 20
-0.9185387766829488
 30
0.0
 10
-0.741740181948783
 20
-0.9146883978825784
 30
0.0
 10
-0.7400326270516966
 20
-0.910277052769991
 30
0.0
 10
-0.7389240639518522
 20
-0.9071529027709334
 30
0.0
 10
-0.7383386948529417
 20
-0.9055032169117648
 30
0.0
  0
LINE
  5
72
330
1F
100
AcDbEntity
  8
0
  6
Continuous
 62
     7
370
    25
100
AcDbLine
 10
-0.7383386949
 20
-0.9055032169
 30
0.0
 11
-0.7324793199
 21
-0.8882123162
 31
0.0
  0
LINE
  5
73
330
1F
100
AcDbEntity
  8
0
  6
Continuous
 62
     7
370
    25
100
AcDbLine
 10
-0.9195772059
 20
-1.125
 30
0.0
 11
-0.8133616728
 21
-0.8125
 31
0.0
  0
LINE
  5
74
330
1F
100
AcDbEntity
  8
0
  6
Continuous
 62
     7
370
    25
100
AcDbLine
 10
-0.8133616728
 20
-0.8125
 30
0.0
 11
-0.7551125919
 21
-0.8125
 31
0.0
  0
SPLINE
  5
75
330
1F
100
AcDbEntity
  8
0
  6
Continuous
 62
     7
370
    25
100
AcDbSpline
210
0.0
220
0.0
230
1.0
 70
     8
 71
     3
 72
    31
 73
    27
 74
     0
 42
0.00000001
 43
0.00000001
 40
0.0
 40
0.0
 40
0.0
 40
0.0
 40
0.0810495029528433
 40
0.1551061191754944
 40
0.2218429755016964
 40
0.2819384017197281
 40
0.3344316452152757
 40
0.3803310930395896
 40
0.4190124362909309
 40
0.4509342928441517
 40
0.4786978868843377
 40
0.5050217467563787
 40
0.5305496466732578
 40
0.5555647135471262
 40
0.5805642106450578
 40
0.6057233938761267
 40
0.6317497514289954
 40
0.6590792128578713
 40
0.6882172025745855
 40
0.7205751797328067
 40
0.7562695755463412
 40
0.7960497370861863
 40
0.8402489999360178
 40
0.8887263379288022
 40
0.9418798070287957
 40
1.0
 40
1.0
 40
1.0
 40
1.0
 10
-0.7551125919117652
 20
-0.8125
 30
0.0
 10
-0.7504594400739615
 20
-0.812504538863367
 30
0.0
 10
-0.7415546066425217
 20
-0.8125132249805757
 30
0.0
 10
-0.7288201941197214
 20
-0.8127552253220026
 30
0.0
 10
-0.7172922974307407
 20
-0.8130982121505097
 30
0.0
 10
-0.7070047749518387
 20
-0.8135184768278809
 30
0.0
 10
-0.6979276567518916
 20
-0.8141624439947676
 30
0.0
 10
-0.6900908923356257
 20
-0.8148863530059173
 30
0.0
 10
-0.6834521380504159
 20
-0.8157151657342964
 30
0.0
 10
-0.6778922688979014
 20
-0.8167331319227307
 30
0.0
 10
-0.673130079589656
 20
-0.8180748215942405
 30
0.0
 10
-0.6688949720134694
 20
-0.819818216022408
 30
0.0
 10
-0.6650087438403146
 20
-0.8219313147904694
 30
0.0
 10
-0.6615190192457272
 20
-0.8245378500076337
 30
0.0
 10
-0.6584913784317409
 20
-0.8276272167633905
 30
0.0
 10
-0.655728631150885
 20
-0.8310319887055572
 30
0.0
 10
-0.6534388856806148
 20
-0.8349310584973827
 30
0.0
 10
-0.6515087790133799
 20
-0.8392690928838509
 30
0.0
 10
-0.6501243598234627
 20
-0.8441943780937017
 30
0.0
 10
-0.6493219023344737
 20
-0.849734078766719
 30
0.0
 10
-0.649287028951049
 20
-0.8559365903409967
 30
0.0
 10
-0.6497322896386164
 20
-0.862798600918133
 30
0.0
 10
-0.650930353811072
 20
-0.8703180395435374
 30
0.0
 10
-0.6527572692179789
 20
-0.878489887788314
 30
0.0
 10
-0.6550845024756249
 20
-0.8873662352368694
 30
0.0
 10
-0.6570953691016063
 20
-0.8934313489965814
 30
0.0
 10
-0.6581456801470593
 20
-0.8965992647058824
 30
0.0
  0
SPLINE
  5
76
330
1F
100
AcDbEntity
  8
0
  6
Continuous
 62
     7
370
    25
100
AcDbSpline
210
0.0
220
0.0
230
1.0
 70
     8
 71
     3
 72
    23
 73
    19
 74
     0
 42
0.00000001
 43
0.00000001
 40
0.0
 40
0.0
 40
0.0
 40
0.0
 40
0.092088612037943
 40
0.1771499167113547
 40
0.2558035707092592
 40
0.3276185318600443
 40
0.3933190985455821
 40
0.4525990380305349
 40
0.5065544538937906
 40
0.5547583018163866
 40
0.6011311517637445
 40
0.6490329523628086
 40
0.6991540963519459
 40
0.7522524041760456
 40
0.8086981574456175
 40
0.8686636310186647
 40
0.9325750579460312
 40
1.0
 40
1.0
 40
1.0
 40
1.0
 10
-0.6581456801470593
 20
-0.8965992647058824
 30
0.0
 10
-0.659159962814759
 20
-0.8994789352466431
 30
0.0
 10
-0.6611111279602464
 20
-0.9050185278755525
 30
0.0
 10
-0.664244804183103
 20
-0.9128985956453332
 30
0.0
 10
-0.6672709447040746
 20
-0.9201005881138902
 30
0.0
 10
-0.6705369736966547
 20
-0.9264836650499194
 30
0.0
 10
-0.673716532105204
 20
-0.9321829617076695
 30
0.0
 10
-0.676945859231686
 20
-0.937163278262926
 30
0.0
 10
-0.6801742897728013
 20
-0.9414419985912976
 30
0.0
 10
-0.6836008363895706
 20
-0.9449965942448525
 30
0.0
 10
-0.6872679461178646
 20
-0.9479853990619586
 30
0.0
 10
-0.6912479104901507
 20
-0.9506611470239636
 30
0.0
 10
-0.6957178092952485
 20
-0.9529448034368139
 30
0.0
 10
-0.7006203028447062
 20
-0.9549505738997969
 30
0.0
 10
-0.7059729964800809
 20
-0.9566836898115928
 30
0.0
 10
-0.7118022084995393
 20
-0.958026561964795
 30
0.0
 10
-0.7180498292576291
 20
-0.9591427127472836
 30
0.0
 10
-0.7223842085967603
 20
-0.9595695003971773
 30
0.0
 10
-0.7246093750000004
 20
-0.9597886029411764
 30
0.0
  0
SPLINE
  5
77
330
1F
100
AcDbEntity
  8
0
  6
Continuous
 62
     7
370
    25
100
AcDbSpline
210
0.0
220
0.0
230
1.0
 70
     8
 71
     3
 72
    27
 73
    23
 74
     0
 42
0.00000001
 43
0.00000001
 40
0.0
 40
0.0
 40
0.0
 40
0.0
 40
0.0549065539231283
 40
0.1045663283807049
 40
0.1500745332209569
 40
0.1917227974480439
 40
0.2287775961083891
 40
0.2627768700096656
 40
0.293555414731215
 40
0.3222454424482835
 40
0.3754758921760658
 40
0.4248063541520614
 40
0.4709123468002489
 40
0.5143085226479959
 40
0.5403103968371289
 40
0.576044020758345
 40
0.6220190251794689
 40
0.6778586849869913
 40
0.7434288400512837
 40
0.8189069983437526
 40
0.9043078866166799
 40
1.0
 40
1.0
 40
1.0
 40
1.0
 10
-0.7246093750000004
 20
-0.9597886029411764
 30
0.0
 10
-0.7228432165198685
 20
-0.9603101622434775
 30
0.0
 10
-0.7194796707423573
 20
-0.961303441503924
 30
0.0
 10
-0.7147228068660071
 20
-0.962956884788545
 30
0.0
 10
-0.7105063272926471
 20
-0.9647828126335029
 30
0.0
 10
-0.7068514803663322
 20
-0.9667900589614169
 30
0.0
 10
-0.7036769535219444
 20
-0.9688540952849003
 30
0.0
 10
-0.7010779656851746
 20
-0.9710864942341452
 30
0.0
 10
-0.6990131208952398
 20
-0.9734656514522839
 30
0.0
 10
-0.6970853998625176
 20
-0.976734433732363
 30
0.0
 10
-0.6954632366485559
 20
-0.9808397364034244
 30
0.0
 10
-0.6940014238598184
 20
-0.9856191025234419
 30
0.0
 10
-0.6933791860186517
 20
-0.9902506287194005
 30
0.0
 10
-0.6933829490783336
 20
-0.9941439500844487
 30
0.0
 10
-0.6939605011340833
 20
-0.9976287979768838
 30
0.0
 10
-0.6948156544292808
 20
-1.00113890367041
 30
0.0
 10
-0.6959403300879683
 20
-1.005613220745675
 30
0.0
 10
-0.6975288995598888
 20
-1.010998377413136
 30
0.0
 10
-0.6994082596547819
 20
-1.017328255156385
 30
0.0
 10
-0.70171803699661
 20
-1.024563645544564
 30
0.0
 10
-0.7044409025331895
 20
-1.032726180975984
 30
0.0
 10
-0.7063612043641402
 20
-1.038488001107756
 30
0.0
 10
-0.7073759191176475
 20
-1.041532628676471
 30
0.0
  0
LINE
  5
78
330
1F
100
AcDbEntity
  8
0
  6
Continuous
 62
     7
370
    25
100
AcDbLine
 10
-0.7073759191
 20
-1.0415326287
 30
0.0
 11
-0.7357536765
 21
-1.125
 31
0.0
  0
LINE
  5
79
330
1F
100
AcDbEntity
  8
0
  6
Continuous
 62
     7
370
    25
100
AcDbLine
 10
-0.7357536765
 20
-1.125
 30
0.0
 11
-0.8129595588
 21
-1.125
 31
0.0
  0
LINE
  5
7A
330
1F
100
AcDbEntity
  8
0
  6
Continuous
 62
     7
370
    25
100
AcDbLine
 10
-0.8129595588
 20
-1.125
 30
0.0
 11
-0.7770565257
 21
-1.0193014706
 31
0.0
  0
SPLINE
  5
7B
330
1F
100
AcDbEntity
  8
0
  6
Continuous
 62
     7
370
    25
100
AcDbSpline
210
0.0
220
0.0
230
1.0
 70
     8
 71
     3
 72
    23
 73
    19
 74
     0
 42
0.00000001
 43
0.00000001
 40
0.0
 40
0.0
 40
0.0
 40
0.0
 40
0.1186041041589879
 40
0.2241384506342797
 40
0.3166723922810384
 40
0.3983802698793844
 40
0.4665203475540114
 40
0.5230821437347478
 40
0.5677065612139547
 40
0.6022986034210689
 40
0.6322373435626779
 40
0.6637915717687227
 40
0.7015210511756677
 40
0.7449272182663482
 40
0.7962135019236269
 40
0.8552651773057178
 40
0.9234714907944498
 40
1.0
 40
1.0
 40
1.0
 40
1.0
 10
-0.7770565257352947
 20
-1.019301470588236
 30
0.0
 10
-0.7763761236921504
 20
-1.017274990808521
 30
0.0
 10
-0.775090297532591
 20
-1.013445342237018
 30
0.0
 10
-0.7734282108154007
 20
-1.00798563090668
 30
0.0
 10
-0.772059677292277
 20
-1.003130014108667
 30
0.0
 10
-0.7711310434833549
 20
-0.9988620484988991
 30
0.0
 10
-0.7703550527737458
 20
-0.9952190768395791
 30
0.0
 10
-0.7700886509450413
 20
-0.9921740652070723
 30
0.0
 10
-0.7700288941893985
 20
-0.98972516434108
 30
0.0
 10
-0.7703335303141023
 20
-0.9877599838763611
 30
0.0
 10
-0.7711398097785027
 20
-0.9861886388378227
 30
0.0
 10
-0.772455026508118
 20
-0.984944615786661
 30
0.0
 10
-0.7741865165714996
 20
-0.9838634300282348
 30
0.0
 10
-0.7764290866982381
 20
-0.9830079859353122
 30
0.0
 10
-0.7791417461023211
 20
-0.9824190916675924
 30
0.0
 10
-0.7823288069583969
 20
-0.9819635221533921
 30
0.0
 10
-0.7859941381783696
 20
-0.9816880735262654
 30
0.0
 10
-0.788602465228959
 20
-0.9816420055122358
 30
0.0
 10
-0.7899816176470592
 20
-0.9816176470588235
 30
0.0
  0
LINE
  5
7C
330
1F
100
AcDbEntity
  8
0
  6
Continuous
 62
     7
370
    25
100
AcDbLine
 10
-0.7899816176
 20
-0.9816176471
 30
0.0
 11
-0.8386948529
 21
-1.125
 31
0.0
  0
LINE
  5
7D
330
1F
100
AcDbEntity
  8
0
  6
Continuous
 62
     7
370
    25
100
AcDbLine
 10
-0.8386948529
 20
-1.125
 30
0.0
 11
-0.9195772059
 21
-1.125
 31
0.0
  0
LINE
  5
7E
330
1F
100
AcDbEntity
  8
0
  6
Continuous
 62
     7
370
    25
100
AcDbLine
 10
-0.4057904412
 20
-1.125
 30
0.0
 11
-0.2995749081
 21
-0.8125
 31
0.0
  0
LINE
  5
7F
330
1F
100
AcDbEntity
  8
0
  6
Continuous
 62
     7
370
    25
100
AcDbLine
 10
-0.2995749081
 20
-0.8125
 30
0.0
 11
-0.1598690257
 21
-0.8125
 31
0.0
  0
LINE
  5
80
330
1F
100
AcDbEntity
  8
0
  6
Continuous
 62
     7
370
    25
100
AcDbLine
 10
-0.1598690257
 20
-0.8125
 30
0.0
 11
-0.1811236213
 21
-0.875
 31
0.0
  0
LINE
  5
81
330
1F
100
AcDbEntity
  8
0
  6
Continuous
 62
     7
370
    25
100
AcDbLine
 10
-0.1811236213
 20
-0.875
 30
0.0
 11
-0.2399471507
 21
-0.875
 31
0.0
  0
LINE
  5
82
330
1F
100
AcDbEntity
  8
0
  6
Continuous
 62
     7
370
    25
100
AcDbLine
 10
-0.2399471507
 20
-0.875
 30
0.0
 11
-0.2599379596
 21
-0.9338235294
 31
0.0
  0
LINE
  5
83
330
1F
100
AcDbEntity
  8
0
  6
Continuous
 62
     7
370
    25
100
AcDbLine
 10
-0.2599379596
 20
-0.9338235294
 30
0.0
 11
-0.2084673713
 21
-0.9338235294
 31
0.0
  0
LINE
  5
84
330
1F
100
AcDbEntity
  8
0
  6
Continuous
 62
     7
370
    25
100
AcDbLine
 10
-0.2084673713
 20
-0.9338235294
 30
0.0
 11
-0.2284581801
 21
-0.9926470588
 31
0.0
  0
LINE
  5
85
330
1F
100
AcDbEntity
  8
0
  6
Continuous
 62
     7
370
    25
100
AcDbLine
 10
-0.2284581801
 20
-0.9926470588
 30
0.0
 11
-0.2799287684
 21
-0.9926470588
 31
0.0
  0
LINE
  5
86
330
1F
100
AcDbEntity
  8
0
  6
Continuous
 62
     7
370
    25
100
AcDbLine
 10
-0.2799287684
 20
-0.9926470588
 30
0.0
 11
-0.3249080882
 21
-1.125
 31
0.0
  0
LINE
  5
87
330
1F
100
AcDbEntity
  8
0
  6
Continuous
 62
     7
370
    25
100
AcDbLine
 10
-0.3249080882
 20
-1.125
 30
0.0
 11
-0.4057904412
 21
-1.125
 31
0.0
  0
LINE
  5
88
330
1F
100
AcDbEntity
  8
0
  6
Continuous
 62
     7
370
    25
100
AcDbLine
 10
0.2325942096
 20
-0.8125
 30
0.0
 11
0.3134765625
 21
-0.8125
 31
0.0
  0
LINE
  5
89
330
1F
100
AcDbEntity
  8
0
  6
Continuous
 62
     7
370
    25
100
AcDbLine
 10
0.3134765625
 20
-0.8125
 30
0.0
 11
0.228515625
 21
-1.0625
 31
0.0
  0
LINE
  5
8A
330
1F
100
AcDbEntity
  8
0
  6
Continuous
 62
     7
370
    25
100
AcDbLine
 10
0.228515625
 20
-1.0625
 30
0.0
 11
0.2799862132
 21
-1.0625
 31
0.0
  0
LINE
  5
8B
330
1F
100
AcDbEntity
  8
0
  6
Continuous
 62
     7
370
    25
100
AcDbLine
 10
0.2799862132
 20
-1.0625
 30
0.0
 11
0.2587316176
 21
-1.125
 31
0.0
  0
LINE
  5
8C
330
1F
100
AcDbEntity
  8
0
  6
Continuous
 62
     7
370
    25
100
AcDbLine
 10
0.2587316176
 20
-1.125
 30
0.0
 11
0.1263786765
 21
-1.125
 31
0.0
  0
LINE
  5
8D
330
1F
100
AcDbEntity
  8
0
  6
Continuous
 62
     7
370
    25
100
AcDbLine
 10
0.1263786765
 20
-1.125
 30
0.0
 11
0.2325942096
 21
-0.8125
 31
0.0
  0
LINE
  5
8E
330
1F
100
AcDbEntity
  8
0
  6
Continuous
 62
     7
370
    25
100
AcDbLine
 10
0.8872931985
 20
-0.8955078125
 30
0.0
 11
0.8829848346
 21
-0.9080882353
 31
0.0
  0
LINE
  5
8F
330
1F
100
AcDbEntity
  8
0
  6
Continuous
 62
     7
370
    25
100
AcDbLine
 10
0.8829848346
 20
-0.9080882353
 30
0.0
 11
0.8057789522
 21
-0.9080882353
 31
0.0
  0
LINE
  5
90
330
1F
100
AcDbEntity
  8
0
  6
Continuous
 62
     7
370
    25
100
AcDbLine
 10
0.8057789522
 20
-0.9080882353
 30
0.0
 11
0.8141659007
 21
-0.8833869485
 31
0.0
  0
SPLINE
  5
91
330
1F
100
AcDbEntity
  8
0
  6
Continuous
 62
     7
370
    25
100
AcDbSpline
210
0.0
220
0.0
230
1.0
 70
     8
 71
     3
 72
    19
 73
    15
 74
     0
 42
0.00000001
 43
0.00000001
 40
0.0
 40
0.0
 40
0.0
 40
0.0
 40
0.1307958572431202
 40
0.2475036275791555
 40
0.351193665225168
 40
0.4414866316503387
 40
0.5199717148359196
 40
0.5841085659130353
 40
0.6375613441604335
 40
0.6794931532895503
 40
0.7496457903749921
 40
0.8207028459691487
 40
0.9013897444178715
 40
0.9999999999999999
 40
0.9999999999999999
 40
0.9999999999999999
 40
0.9999999999999999
 10
0.8141659007352938
 20
-0.8833869485294119
 30
0.0
 10
0.8146389716410052
 20
-0.8820125616758546
 30
0.0
 10
0.8155341587496312
 20
-0.8794118238610463
 30
0.0
 10
0.8165984182509267
 20
-0.875656138538282
 30
0.0
 10
0.8175306980426095
 20
-0.8723339831988522
 30
0.0
 10
0.818270852806789
 20
-0.8693933566358047
 30
0.0
 10
0.8186217620189866
 20
-0.8668294409773893
 30
0.0
 10
0.8189317869263419
 20
-0.8646665203879892
 30
0.0
 10
0.8188543147220648
 20
-0.8628902856202392
 30
0.0
 10
0.8186093166755662
 20
-0.8610594677767086
 30
0.0
 10
0.8176152559128557
 20
-0.8591972053717276
 30
0.0
 10
0.8156311327593773
 20
-0.8576485645742338
 30
0.0
 10
0.8129578672335233
 20
-0.8567155428674629
 30
0.0
 10
0.8109576311463017
 20
-0.8566523835587382
 30
0.0
 10
0.8098575367647056
 20
-0.8566176470588236
 30
0.0
  0
SPLINE
  5
92
330
1F
100
AcDbEntity
  8
0
  6
Continuous
 62
     7
370
    25
100
AcDbSpline
210
0.0
220
0.0
230
1.0
 70
     8
 71
     3
 72
    15
 73
    11
 74
     0
 42
0.00000001
 43
0.00000001
 40
0.0
 40
0.0
 40
0.0
 40
0.0
 40
0.1032877990756621
 40
0.2046340762033919
 40
0.3090424485489434
 40
0.4211385819020799
 40
0.5430498989917812
 40
0.6795792376226334
 40
0.8311320707146208
 40
1.0
 40
1.0
 40
1.0
 40
1.0
 10
0.8098575367647056
 20
-0.8566176470588236
 30
0.0
 10
0.8085663704638625
 20
-0.8566978079480438
 30
0.0
 10
0.8060083081800062
 20
-0.8568566229258052
 30
0.0
 10
0.8022914528440893
 20
-0.8580545964316919
 30
0.0
 10
0.7988597741328045
 20
-0.8600885624764412
 30
0.0
 10
0.7955937736194812
 20
-0.8628080581871134
 30
0.0
 10
0.7926736649656098
 20
-0.8664240228284559
 30
0.0
 10
0.7899059748997447
 20
-0.8707419876466465
 30
0.0
 10
0.7874506410130753
 20
-0.8759106151974385
 30
0.0
 10
0.7860985876454469
 20
-0.8796780775365577
 30
0.0
 10
0.7853860294117645
 20
-0.8816636029411765
 30
0.0
  0
SPLINE
  5
93
330
1F
100
AcDbEntity
  8
0
  6
Continuous
 62
     7
370
    25
100
AcDbSpline
210
0.0
220
0.0
230
1.0
 70
     8
 71
     3
 72
    11
 73
     7
 74
     0
 42
0.00000001
 43
0.00000001
 40
0.0
 40
0.0
 40
0.0
 40
0.0
 40
0.3191444525926401
 40
0.5900212766507473
 40
0.8164232718266416
 40
0.9999999999999999
 40
0.9999999999999999
 40
0.9999999999999999
 40
0.9999999999999999
 10
0.7853860294117645
 20
-0.8816636029411765
 30
0.0
 10
0.7845641287751991
 20
-0.8842003591882908
 30
0.0
 10
0.78304463232484
 20
-0.888890210906894
 30
0.0
 10
0.781464503505676
 20
-0.895521039058093
 30
0.0
 10
0.7806144387802346
 20
-0.9011784999242385
 30
0.0
 10
0.7808550409678889
 20
-0.904602113988215
 30
0.0
 10
0.7809627757352938
 20
-0.9061351102941176
 30
0.0
  0
SPLINE
  5
94
330
1F
100
AcDbEntity
  8
0
  6
Continuous
 62
     7
370
    25
100
AcDbSpline
210
0.0
220
0.0
230
1.0
 70
     8
 71
     3
 72
    15
 73
    11
 74
     0
 42
0.00000001
 43
0.00000001
 40
0.0
 40
0.0
 40
0.0
 40
0.0
 40
0.0803696995777636
 40
0.1710936958583042
 40
0.2738924611495077
 40
0.3885922914301321
 40
0.5165061217492887
 40
0.6616566629605545
 40
0.8216408219201118
 40
1.0
 40
1.0
 40
1.0
 40
1.0
 10
0.7809627757352938
 20
-0.9061351102941176
 30
0.0
 10
0.7810864527845984
 20
-0.9068334452287881
 30
0.0
 10
0.7813497406103529
 20
-0.9083200839190833
 30
0.0
 10
0.7824134769170223
 20
-0.9105041348800564
 30
0.0
 10
0.7838447330781488
 20
-0.9128038122922466
 30
0.0
 10
0.7857724974869776
 20
-0.915159204555737
 30
0.0
 10
0.7881650920684302
 20
-0.9175886221574789
 30
0.0
 10
0.7910336790529555
 20
-0.9200930023485985
 30
0.0
 10
0.7943958090795556
 20
-0.9226937655550348
 30
0.0
 10
0.796846758171927
 20
-0.9243769488482442
 30
0.0
 10
0.7981387867647055
 20
-0.9252642463235294
 30
0.0
  0
SPLINE
  5
95
330
1F
100
AcDbEntity
  8
0
  6
Continuous
 62
     7
370
    25
100
AcDbSpline
210
0.0
220
0.0
230
1.0
 70
     8
 71
     3
 72
    15
 73
    11
 74
     0
 42
0.00000001
 43
0.00000001
 40
0.0
 40
0.0
 40
0.0
 40
0.0
 40
0.1761795154621958
 40
0.3368665035373745
 40
0.4827604642057929
 40
0.6137078089903811
 40
0.7301265532228828
 40
0.832612642362498
 40
0.9216288008528635
 40
0.9999999999999999
 40
0.9999999999999999
 40
0.9999999999999999
 40
0.9999999999999999
 10
0.7981387867647055
 20
-0.9252642463235294
 30
0.0
 10
0.8018135000639248
 20
-0.9278056114399285
 30
0.0
 10
0.8088397869586462
 20
-0.9326648641102934
 30
0.0
 10
0.81863574441429
 20
-0.9400137886345417
 30
0.0
 10
0.8272045619845968
 20
-0.9470680410816249
 30
0.0
 10
0.8345912050802596
 20
-0.9537742210267902
 30
0.0
 10
0.8407814957092385
 20
-0.9601418563187136
 30
0.0
 10
0.8457682382538814
 20
-0.9661565940749836
 30
0.0
 10
0.8495930173609557
 20
-0.9718706959610485
 30
0.0
 10
0.8512865753782276
 20
-0.9757705741657349
 30
0.0
 10
0.8520795036764703
 20
-0.9775965073529412
 30
0.0
  0
SPLINE
  5
96
330
1F
100
AcDbEntity
  8
0
  6
Continuous
 62
     7
370
    25
100
AcDbSpline
210
0.0
220
0.0
230
1.0
 70
     8
 71
     3
 72
    15
 73
    11
 74
     0
 42
0.00000001
 43
0.00000001
 40
0.0
 40
0.0
 40
0.0
 40
0.0
 40
0.0845629235934789
 40
0.1787016126315146
 40
0.28295912111709
 40
0.4000836612261969
 40
0.5292511729675387
 40
0.6727267331788426
 40
0.8293407918297434
 40
1.0
 40
1.0
 40
1.0
 40
1.0
 10
0.8520795036764703
 20
-0.9775965073529412
 30
0.0
 10
0.8526302353164905
 20
-0.9794613824051694
 30
0.0
 10
0.8537940625355201
 20
-0.9834023078725949
 30
0.0
 10
0.8545151928427502
 20
-0.9898897175311924
 30
0.0
 10
0.8545274311265525
 20
-0.9971392314040969
 30
0.0
 10
0.8538828277171621
 20
-1.005171725632671
 30
0.0
 10
0.8524514707460681
 20
-1.014012168257459
 30
0.0
 10
0.8503150329392
 20
-1.02363767915447
 30
0.0
 10
0.8474113457369729
 20
-1.034053206729406
 30
0.0
 10
0.8450803866024985
 20
-1.041196794965892
 30
0.0
 10
0.8438648897058821
 20
-1.044921875
 30
0.0
  0
SPLINE
  5
97
330
1F
100
AcDbEntity
  8
0
  6
Continuous
 62
     7
370
    25
100
AcDbSpline
210
0.0
220
0.0
230
1.0
 70
     8
 71
     3
 72
    27
 73
    23
 74
     0
 42
0.00000001
 43
0.00000001
 40
0.0
 40
0.0
 40
0.0
 40
0.0
 40
0.053163868685441
 40
0.1033546287898619
 40
0.1505467783094374
 40
0.1945250946682869
 40
0.2356679467325578
 40
0.2742216502608517
 40
0.3099906460348013
 40
0.34339772006834
 40
0.3758222115707105
 40
0.4092237104799043
 40
0.4442792353545801
 40
0.4803661532921915
 40
0.5182014725515663
 40
0.557627671924017
 40
0.5990756853325963
 40
0.6421512231973879
 40
0.7301840467275376
 40
0.8182944042859948
 40
0.9082896887285928
 40
1.0
 40
1.0
 40
1.0
 40
1.0
 10
0.8438648897058821
 20
-1.044921875
 30
0.0
 10
0.8428971034294351
 20
-1.047643954245344
 30
0.0
 10
0.8410156528536328
 20
-1.052935884590064
 30
0.0
 10
0.8381301812130779
 20
-1.060594208143203
 30
0.0
 10
0.8350535749413394
 20
-1.067634775026943
 30
0.0
 10
0.8320509824127158
 20
-1.074171001060043
 30
0.0
 10
0.8288619028940611
 20
-1.080090654029067
 30
0.0
 10
0.8256765936400138
 20
-1.085500120887148
 30
0.0
 10
0.8223826096301354
 20
-1.090343816938057
 30
0.0
 10
0.819030120419762
 20
-1.0947371680681
 30
0.0
 10
0.8153818611373689
 20
-1.098717362009852
 30
0.0
 10
0.8113853673898971
 20
-1.102477153514978
 30
0.0
 10
0.8069721479723609
 20
-1.106060519355923
 30
0.0
 10
0.8021800121683592
 20
-1.109547203854969
 30
0.0
 10
0.7969413778313668
 20
-1.112795270104145
 30
0.0
 10
0.7912947050591836
 20
-1.115922223408246
 30
0.0
 10
0.7852015442243239
 20
-1.118799355045573
 30
0.0
 10
0.7766305766166274
 20
-1.122608921923385
 30
0.0
 10
0.7653342828877561
 20
-1.126471554338541
 30
0.0
 10
0.7512697008109528
 20
-1.129912388338133
 30
0.0
 10
0.7367131490877771
 20
-1.131946204761687
 30
0.0
 10
0.7268368036711894
 20
-1.132216511940818
 30
0.0
 10
0.7218520220588233
 20
-1.132352941176471
 30
0.0
  0
SPLINE
  5
98
330
1F
100
AcDbEntity
  8
0
  6
Continuous
 62
     7
370
    25
100
AcDbSpline
210
0.0
220
0.0
230
1.0
 70
     8
 71
     3
 72
    31
 73
    27
 74
     0
 42
0.00000001
 43
0.00000001
 40
0.0
 40
0.0
 40
0.0
 40
0.0
 40
0.0535203505194098
 40
0.1045432032275936
 40
0.1527923249160179
 40
0.1988610399886405
 40
0.2425964593817201
 40
0.2842593247989081
 40
0.3239900641005218
 40
0.3627799176102494
 40
0.3997486588787556
 40
0.4346989414691116
 40
0.4674760750645429
 40
0.4992832224885372
 40
0.530178550284716
 40
0.561048230092945
 40
0.5917963752568216
 40
0.6234401054005092
 40
0.6575964096655867
 40
0.6948812863128201
 40
0.7362597365699168
 40
0.7809962450789911
 40
0.8300622534675263
 40
0.8827172373324457
 40
0.9392766857977226
 40
1.0
 40
1.0
 40
1.0
 40
1.0
 10
0.7218520220588233
 20
-1.132352941176471
 30
0.0
 10
0.7191505257810245
 20
-1.132332519065443
 30
0.0
 10
0.7138735970679716
 20
-1.132292627830003
 30
0.0
 10
0.7061878124043448
 20
-1.131614957126845
 30
0.0
 10
0.6989123301169058
 20
-1.130671378856473
 30
0.0
 10
0.6920768884940728
 20
-1.129299282854852
 30
0.0
 10
0.6856751317762827
 20
-1.127533050399392
 30
0.0
 10
0.6797502147908292
 20
-1.125335090936041
 30
0.0
 10
0.6742216203548804
 20
-1.122821778372389
 30
0.0
 10
0.669207118245907
 20
-1.119832749528024
 30
0.0
 10
0.6646624208962539
 20
-1.116574228906038
 30
0.0
 10
0.660680720419306
 20
-1.113084422472977
 30
0.0
 10
0.6573102183585079
 20
-1.109350530053668
 30
0.0
 10
0.654444833807086
 20
-1.105458620390568
 30
0.0
 10
0.6522698968315457
 20
-1.101252465189213
 30
0.0
 10
0.6505652525661959
 20
-1.096893482509852
 30
0.0
 10
0.6495393236753995
 20
-1.092283747085571
 30
0.0
 10
0.6490803961656022
 20
-1.087421498011118
 30
0.0
 10
0.649213225366223
 20
-1.082215980427498
 30
0.0
 10
0.6495833624373846
 20
-1.076532384412013
 30
0.0
 10
0.6505042972784246
 20
-1.070369647543801
 30
0.0
 10
0.65169182381464
 20
-1.063652041243665
 30
0.0
 10
0.6533770007722614
 20
-1.056452920065621
 30
0.0
 10
0.6554794479525257
 20
-1.048748137944491
 30
0.0
 10
0.6578584870292672
 20
-1.040508133420981
 30
0.0
 10
0.659750899387463
 20
-1.034900264866102
 30
0.0
 10
0.6607306985294115
 20
-1.031996783088235
 30
0.0
  0
LINE
  5
99
330
1F
100
AcDbEntity
  8
0
  6
Continuous
 62
     7
370
    25
100
AcDbLine
 10
0.6607306985
 20
-1.0319967831
 30
0.0
 11
0.6678538603
 21
-1.0110294118
 31
0.0
  0
LINE
  5
9A
330
1F
100
AcDbEntity
  8
0
  6
Continuous
 62
     7
370
    25
100
AcDbLine
 10
0.6678538603
 20
-1.0110294118
 30
0.0
 11
0.7450597426
 21
-1.0110294118
 31
0.0
  0
LINE
  5
9B
330
1F
100
AcDbEntity
  8
0
  6
Continuous
 62
     7
370
    25
100
AcDbLine
 10
0.7450597426
 20
-1.0110294118
 30
0.0
 11
0.7313304228
 21
-1.0515280331
 31
0.0
  0
SPLINE
  5
9C
330
1F
100
AcDbEntity
  8
0
  6
Continuous
 62
     7
370
    25
100
AcDbSpline
210
0.0
220
0.0
230
1.0
 70
     8
 71
     3
 72
    19
 73
    15
 74
     0
 42
0.00000001
 43
0.00000001
 40
0.0
 40
0.0
 40
0.0
 40
0.0
 40
0.1266119174319711
 40
0.2391533727478578
 40
0.3396390274492859
 40
0.4278328486357904
 40
0.5042885188488547
 40
0.5677254490986712
 40
0.6200831002225591
 40
0.6623681562952424
 40
0.734020464984217
 40
0.8076317399858607
 40
0.893343802268058
 40
1.0
 40
1.0
 40
1.0
 40
1.0
 10
0.7313304227941173
 20
-1.051528033088235
 30
0.0
 10
0.7308215822397934
 20
-1.053018113442162
 30
0.0
 10
0.7298604489023819
 20
-1.05583268058193
 30
0.0
 10
0.7286624569831276
 20
-1.059882838506367
 30
0.0
 10
0.7276535851263414
 20
-1.063491425369621
 30
0.0
 10
0.7269713561157748
 20
-1.066718328318624
 30
0.0
 10
0.7264977359805559
 20
-1.069516615680737
 30
0.0
 10
0.7262565816901249
 20
-1.071894891409149
 30
0.0
 10
0.7262065372735036
 20
-1.073868170536249
 30
0.0
 10
0.7265668438229582
 20
-1.075915671672087
 30
0.0
 10
0.7276817224305567
 20
-1.078056265386817
 30
0.0
 10
0.7300756199871818
 20
-1.079786166099965
 30
0.0
 10
0.7332936219696643
 20
-1.080727022802126
 30
0.0
 10
0.7356892416130792
 20
-1.080826949707109
 30
0.0
 10
0.7370174632352937
 20
-1.080882352941177
 30
0.0
  0
SPLINE
  5
9D
330
1F
100
AcDbEntity
  8
0
  6
Continuous
 62
     7
370
    25
100
AcDbSpline
210
0.0
220
0.0
230
1.0
 70
     8
 71
     3
 72
    15
 73
    11
 74
     0
 42
0.00000001
 43
0.00000001
 40
0.0
 40
0.0
 40
0.0
 40
0.0
 40
0.1076187530358851
 40
0.2138553963302129
 40
0.3194686552525609
 40
0.43144046966488
 40
0.5536182715245338
 40
0.6889820207102355
 40
0.8359649449670364
 40
1.0
 40
1.0
 40
1.0
 40
1.0
 10
0.7370174632352937
 20
-1.080882352941177
 30
0.0
 10
0.73844497209286
 20
-1.080812526005884
 30
0.0
 10
0.7412816568145081
 20
-1.080673768898035
 30
0.0
 10
0.745332798648745
 20
-1.079330158334325
 30
0.0
 10
0.749128041236252
 20
-1.077293030664346
 30
0.0
 10
0.7525300182894927
 20
-1.074312901181053
 30
0.0
 10
0.7557289522487656
 20
-1.070597177816814
 30
0.0
 10
0.7585324065658239
 20
-1.066022680114959
 30
0.0
 10
0.7611793011277656
 20
-1.060733774961733
 30
0.0
 10
0.7625479285596968
 20
-1.056850487574055
 30
0.0
 10
0.7632697610294115
 20
-1.054802389705882
 30
0.0
  0
SPLINE
  5
9E
330
1F
100
AcDbEntity
  8
0
  6
Continuous
 62
     7
370
    25
100
AcDbSpline
210
0.0
220
0.0
230
1.0
 70
     8
 71
     3
 72
    15
 73
    11
 74
     0
 42
0.00000001
 43
0.00000001
 40
0.0
 40
0.0
 40
0.0
 40
0.0
 40
0.186127669682912
 40
0.354828786428557
 40
0.5045046457812545
 40
0.6370554798396287
 40
0.7501513977649013
 40
0.8477437129115264
 40
0.9297053069302379
 40
1.0
 40
1.0
 40
1.0
 40
1.0
 10
0.7632697610294115
 20
-1.054802389705882
 30
0.0
 10
0.7640116591804127
 20
-1.052547403806382
 30
0.0
 10
0.7654259938734853
 20
-1.048248559300907
 30
0.0
 10
0.7672158229258942
 20
-1.042066413318314
 30
0.0
 10
0.7685640475163596
 20
-1.036473060953077
 30
0.0
 10
0.7694444083919231
 20
-1.031505005788496
 30
0.0
 10
0.7698662690178346
 20
-1.02714103305787
 30
0.0
 10
0.7699037022336376
 20
-1.023409252166598
 30
0.0
 10
0.7695248014579291
 20
-1.020212833725095
 30
0.0
 10
0.7687825057861152
 20
-1.0184103210255
 30
0.0
 10
0.7684397977941173
 20
-1.017578125
 30
0.0
  0
SPLINE
  5
9F
330
1F
100
AcDbEntity
  8
0
  6
Continuous
 62
     7
370
    25
100
AcDbSpline
210
0.0
220
0.0
230
1.0
 70
     8
 71
     3
 72
    15
 73
    11
 74
     0
 42
0.00000001
 43
0.00000001
 40
0.0
 40
0.0
 40
0.0
 40
0.0
 40
0.0670119753424167
 40
0.1504372153703084
 40
0.2490584651804988
 40
0.3661968380994213
 40
0.4991646790068627
 40
0.6490334385222121
 40
0.8150195656280815
 40
1.0
 40
1.0
 40
1.0
 40
1.0
 10
0.7684397977941173
 20
-1.017578125
 30
0.0
 10
0.7679598881317485
 20
-1.016780560057709
 30
0.0
 10
0.7668825243789693
 20
-1.014990082335151
 30
0.0
 10
0.764649685348519
 20
-1.012338346994982
 30
0.0
 10
0.7617906558675929
 20
-1.009331642168243
 30
0.0
 10
0.7583106128923909
 20
-1.00596717082532
 30
0.0
 10
0.7541428293796817
 20
-1.002302986852273
 30
0.0
 10
0.749390120682261
 20
-0.9982797053103172
 30
0.0
 10
0.7439433046530142
 20
-0.9939648909420584
 30
0.0
 10
0.7400850187431645
 20
-0.9909952997694128
 30
0.0
 10
0.738051470588235
 20
-0.9894301470588236
 30
0.0
  0
SPLINE
  5
A0
330
1F
100
AcDbEntity
  8
0
  6
Continuous
 62
     7
370
    25
100
AcDbSpline
210
0.0
220
0.0
230
1.0
 70
     8
 71
     3
 72
    23
 73
    19
 74
     0
 42
0.00000001
 43
0.00000001
 40
0.0
 40
0.0
 40
0.0
 40
0.0
 40
0.0680794656302947
 40
0.1309934715359107
 40
0.1876461945694474
 40
0.238780288233398
 40
0.2841318380278081
 40
0.3236514281576168
 40
0.3577782337786155
 40
0.3862669774035855
 40
0.4395294208455457
 40
0.4962299530532839
 40
0.5582079293480775
 40
0.626387772306845
 40
0.7030956415632439
 40
0.7901119044833971
 40
0.8889618007244524
 40
0.9999999999999999
 40
0.9999999999999999
 40
0.9999999999999999
 40
0.9999999999999999
 10
0.738051470588235
 20
-0.9894301470588236
 30
0.0
 10
0.7360176832154491
 20
-0.9878651766144388
 30
0.0
 10
0.7321044200036917
 20
-0.9848539762552246
 30
0.0
 10
0.7265634715698334
 20
-0.9804579201721719
 30
0.0
 10
0.7215826170582224
 20
-0.976382434120643
 30
0.0
 10
0.7172598531638932
 20
-0.9725573292640438
 30
0.0
 10
0.7133578592147934
 20
-0.9692283236057077
 30
0.0
 10
0.7101635639907581
 20
-0.9660781879768341
 30
0.0
 10
0.7074198912519299
 20
-0.9633733544896008
 30
0.0
 10
0.7046187888842601
 20
-0.9600167852562808
 30
0.0
 10
0.7017297120537348
 20
-0.9556344029347917
 30
0.0
 10
0.6993058000299952
 20
-0.9495878040072759
 30
0.0
 10
0.697539171054441
 20
-0.9427569711252386
 30
0.0
 10
0.6964762348913365
 20
-0.9350095083288295
 30
0.0
 10
0.696521542601478
 20
-0.9262390174015783
 30
0.0
 10
0.6978269158967297
 20
-0.9164112303339141
 30
0.0
 10
0.7002462834846125
 20
-0.9054672314743903
 30
0.0
 10
0.7026925248845921
 20
-0.8979393278052944
 30
0.0
 10
0.7039866727941173
 20
-0.8939568014705882
 30
0.0
  0
SPLINE
  5
A1
330
1F
100
AcDbEntity
  8
0
  6
Continuous
 62
     7
370
    25
100
AcDbSpline
210
0.0
220
0.0
230
1.0
 70
     8
 71
     3
 72
    23
 73
    19
 74
     0
 42
0.00000001
 43
0.00000001
 40
0.0
 40
0.0
 40
0.0
 40
0.0
 40
0.0573097445038256
 40
0.1111150361748697
 40
0.1614730429392107
 40
0.2089245589950541
 40
0.2532613232592135
 40
0.29473550484331
 40
0.333171484671305
 40
0.368960957328226
 40
0.438505225304458
 40
0.5099903740033054
 40
0.5841055743509603
 40
0.6617342855460007
 40
0.7423251366288327
 40
0.825100310182418
 40
0.9107503481254957
 40
1.0
 40
1.0
 40
1.0
 40
1.0
 10
0.7039866727941173
 20
-0.8939568014705882
 30
0.0
 10
0.7050209860238617
 20
-0.8910201757409419
 30
0.0
 10
0.7070263649159542
 20
-0.8853264969956122
 30
0.0
 10
0.7102493910061197
 20
-0.8771661152338667
 30
0.0
 10
0.7135203203677872
 20
-0.8696057899478282
 30
0.0
 10
0.7168851331148189
 20
-0.8626515940564699
 30
0.0
 10
0.7204079204572625
 20
-0.8563235419623662
 30
0.0
 10
0.7239483716214915
 20
-0.8505750441204093
 30
0.0
 10
0.727553926129859
 20
-0.8454185721508576
 30
0.0
 10
0.7325759719364502
 20
-0.8394288302333395
 30
0.0
 10
0.7394567485169155
 20
-0.8326821060695707
 30
0.0
 10
0.7488566613762218
 20
-0.8256913874859968
 30
0.0
 10
0.7593053074038121
 20
-0.819489026207677
 30
0.0
 10
0.7708718497997704
 20
-0.8143740871906596
 30
0.0
 10
0.7833165735661487
 20
-0.8102463962991069
 30
0.0
 10
0.796531230674957
 20
-0.8072692294529038
 30
0.0
 10
0.8104383050502247
 20
-0.8054470914434427
 30
0.0
 10
0.8199430284040343
 20
-0.8052484325642577
 30
0.0
 10
0.8247931985294115
 20
-0.8051470588235293
 30
0.0
  0
SPLINE
  5
A2
330
1F
100
AcDbEntity
  8
0
  6
Continuous
 62
     7
370
    25
100
AcDbSpline
210
0.0
220
0.0
230
1.0
 70
     8
 71
     3
 72
    31
 73
    27
 74
     0
 42
0.00000001
 43
0.00000001
 40
0.0
 40
0.0
 40
0.0
 40
0.0
 40
0.0551498325459446
 40
0.107587350837962
 40
0.157095111474155
 40
0.2044539100574231
 40
0.2492258035041545
 40
0.291819686582895
 40
0.3325533875295363
 40
0.3716860805999781
 40
0.4087574704280559
 40
0.4428966978411844
 40
0.4748825297169575
 40
0.5051239320089355
 40
0.5340597164621891
 40
0.5615817565287469
 40
0.5891298852167391
 40
0.6164773651285187
 40
0.6465095368323804
 40
0.6812903566756545
 40
0.7207379284135998
 40
0.7657321133259916
 40
0.8161330428188652
 40
0.8718544810114568
 40
0.9331617346722253
 40
1.0
 40
1.0
 40
1.0
 40
1.0
 10
0.8247931985294115
 20
-0.8051470588235293
 30
0.0
 10
0.8274358756998427
 20
-0.805186797314093
 30
0.0
 10
0.8325912609976999
 20
-0.8052643199234767
 30
0.0
 10
0.8401153994251354
 20
-0.8056726950310641
 30
0.0
 10
0.8472118171901777
 20
-0.8066068421957405
 30
0.0
 10
0.8539305857162359
 20
-0.8076068706566776
 30
0.0
 10
0.8602069988528172
 20
-0.8091499150677666
 30
0.0
 10
0.8660946609238825
 20
-0.8109006073724356
 30
0.0
 10
0.8715731551795233
 20
-0.8130264686299383
 30
0.0
 10
0.8766130686379107
 20
-0.815493431398214
 30
0.0
 10
0.8811710481034046
 20
-0.8181787588267656
 30
0.0
 10
0.885269763074794
 20
-0.82096722200965
 30
0.0
 10
0.8886999311787789
 20
-0.8240704155467498
 30
0.0
 10
0.8917635441738728
 20
-0.8271985372040225
 30
0.0
 10
0.8941668115066665
 20
-0.8306079011974988
 30
0.0
 10
0.8960600247379882
 20
-0.8341748858339321
 30
0.0
 10
0.8973657820915759
 20
-0.8379163662802194
 30
0.0
 10
0.8982176425615184
 20
-0.8419106052598132
 30
0.0
 10
0.8984499388580658
 20
-0.8463336267156498
 30
0.0
 10
0.8982788283145591
 20
-0.8513337089620318
 30
0.0
 10
0.8975069379714452
 20
-0.8570004035980593
 30
0.0
 10
0.8964548920737606
 20
-0.8633785456685953
 30
0.0
 10
0.8947763890567114
 20
-0.8704275595979081
 30
0.0
 10
0.8927977028371099
 20
-0.8782043221063969
 30
0.0
 10
0.8902379686904716
 20
-0.8866393291515062
 30
0.0
 10
0.8883026328782438
 20
-0.8924677953766273
 30
0.0
 10
0.8872931985294115
 20
-0.8955078125
 30
0.0
  0
LINE
  5
A3
330
1F
100
AcDbEntity
  8
0
  6
Continuous
 62
     7
370
    25
100
AcDbLine
 10
-0.3780514706
 20
0.5
 30
0.0
 11
0.0043014706
 21
0.5
 31
0.0
  0
LINE
  5
A4
330
1F
100
AcDbEntity
  8
0
  6
Continuous
 62
     7
370
    25
100
AcDbLine
 10
0.0043014706
 20
0.5
 30
0.0
 11
-0.1797058824
 21
-0.5
 31
0.0
  0
LINE
  5
A5
330
1F
100
AcDbEntity
  8
0
  6
Continuous
 62
     7
370
    25
100
AcDbLine
 10
-0.1797058824
 20
-0.5
 30
0.0
 11
-0.4473529412
 21
-0.5
 31
0.0
  0
LINE
  5
A6
330
1F
100
AcDbEntity
  8
0
  6
Continuous
 62
     7
370
    25
100
AcDbLine
 10
-0.4473529412
 20
-0.5
 30
0.0
 11
-0.4025
 21
-0.3235294118
 31
0.0
  0
LINE
  5
A7
330
1F
100
AcDbEntity
  8
0
  6
Continuous
 62
     7
370
    25
100
AcDbLine
 10
-0.4025
 20
-0.3235294118
 30
0.0
 11
-0.5074632353
 21
-0.3235294118
 31
0.0
  0
LINE
  5
A8
330
1F
100
AcDbEntity
  8
0
  6
Continuous
 62
     7
370
    25
100
AcDbLine
 10
-0.5074632353
 20
-0.3235294118
 30
0.0
 11
-0.5826470588
 21
-0.5
 31
0.0
  0
LINE
  5
A9
330
1F
100
AcDbEntity
  8
0
  6
Continuous
 62
     7
370
    25
100
AcDbLine
 10
-0.5826470588
 20
-0.5
 30
0.0
 11
-0.8502941176
 21
-0.5
 31
0.0
  0
LINE
  5
AA
330
1F
100
AcDbEntity
  8
0
  6
Continuous
 62
     7
370
    25
100
AcDbLine
 10
-0.8502941176
 20
-0.5
 30
0.0
 11
-0.3780514706
 21
0.5
 31
0.0
  0
LINE
  5
AB
330
1F
100
AcDbEntity
  8
0
  6
Continuous
 62
     7
370
    25
100
AcDbLine
 10
0.9407720588
 20
0.5
 30
0.0
 11
1.5054779412
 21
0.5
 31
0.0
  0
LINE
  5
AC
330
1F
100
AcDbEntity
  8
0
  6
Continuous
 62
     7
370
    25
100
AcDbLine
 10
1.5054779412
 20
0.5
 30
0.0
 11
1.4374632353
 21
0.3
 31
0.0
  0
LINE
  5
AD
330
1F
100
AcDbEntity
  8
0
  6
Continuous
 62
     7
370
    25
100
AcDbLine
 10
1.4374632353
 20
0.3
 30
0.0
 11
1.2845220588
 21
0.3
 31
0.0
  0
LINE
  5
AE
330
1F
100
AcDbEntity
  8
0
  6
Continuous
 62
     7
370
    25
100
AcDbLine
 10
1.2845220588
 20
0.3
 30
0.0
 11
1.0126470588
 21
-0.5
 31
0.0
  0
LINE
  5
AF
330
1F
100
AcDbEntity
  8
0
  6
Continuous
 62
     7
370
    25
100
AcDbLine
 10
1.0126470588
 20
-0.5
 30
0.0
 11
0.7538235294
 21
-0.5
 31
0.0
  0
LINE
  5
B0
330
1F
100
AcDbEntity
  8
0
  6
Continuous
 62
     7
370
    25
100
AcDbLine
 10
0.7538235294
 20
-0.5
 30
0.0
 11
1.0256985294
 21
0.3
 31
0.0
  0
LINE
  5
B1
330
1F
100
AcDbEntity
  8
0
  6
Continuous
 62
     7
370
    25
100
AcDbLine
 10
1.0256985294
 20
0.3
 30
0.0
 11
0.8727573529
 21
0.3
 31
0.0
  0
LINE
  5
B2
330
1F
100
AcDbEntity
  8
0
  6
Continuous
 62
     7
370
    25
100
AcDbLine
 10
0.8727573529
 20
0.3
 30
0.0
 11
0.9407720588
 21
0.5
 31
0.0
  0
LINE
  5
B3
330
1F
100
AcDbEntity
  8
0
  6
Continuous
 62
     7
370
    25
100
AcDbLine
 10
1.8898897059
 20
0.5
 30
0.0
 11
2.0428308824
 21
0.5
 31
0.0
  0
LINE
  5
B4
330
1F
100
AcDbEntity
  8
0
  6
Continuous
 62
     7
370
    25
100
AcDbLine
 10
2.0428308824
 20
0.5
 30
0.0
 11
1.7029411765
 21
-0.5
 31
0.0
  0
LINE
  5
B5
330
1F
100
AcDbEntity
  8
0
  6
Continuous
 62
     7
370
    25
100
AcDbLine
 10
1.7029411765
 20
-0.5
 30
0.0
 11
1.4558823529
 21
-0.5
 31
0.0
  0
LINE
  5
B6
330
1F
100
AcDbEntity
  8
0
  6
Continuous
 62
     7
370
    25
100
AcDbLine
 10
1.4558823529
 20
-0.5
 30
0.0
 11
1.6367647059
 21
0.0319852941
 31
0.0
  0
SPLINE
  5
B7
330
1F
100
AcDbEntity
  8
0
  6
Continuous
 62
     7
370
    25
100
AcDbSpline
210
0.0
220
0.0
230
1.0
 70
     8
 71
     3
 72
    27
 73
    23
 74
     0
 42
0.00000001
 43
0.00000001
 40
0.0
 40
0.0
 40
0.0
 40
0.0
 40
0.0966878390540286
 40
0.1828704047010863
 40
0.2589487276235033
 40
0.324714466232274
 40
0.3798115793840762
 40
0.4248724366020403
 40
0.4596406233792628
 40
0.4839156040309597
 40
0.5208479569794844
 40
0.554700595321984
 40
0.5892887055272483
 40
0.6276929998200551
 40
0.6511190240021008
 40
0.6805264957422505
 40
0.7169636438979441
 40
0.759771845051223
 40
0.8091756927953951
 40
0.8658573909400361
 40
0.9292496088357837
 40
1.0
 40
1.0
 40
1.0
 40
1.0
 10
1.636764705882352
 20
0.0319852941176469
 30
0.0
 10
1.639827208128773
 20
0.041115476068727
 30
0.0
 10
1.645619467327864
 20
0.0583838325106947
 30
0.0
 10
1.653840029126459
 20
0.0828319703143235
 30
0.0
 10
1.660497699774176
 20
0.1045478971859158
 30
0.0
 10
1.666473614454411
 20
0.1232295740799088
 30
0.0
 10
1.671186571871124
 20
0.1390761345598957
 30
0.0
 10
1.674359698780764
 20
0.1521353575130899
 30
0.0
 10
1.676933192714969
 20
0.1621845055397364
 30
0.0
 10
1.678506340707953
 20
0.1716265862331594
 30
0.0
 10
1.678347708564739
 20
0.1812062746802056
 30
0.0
 10
1.674971693548312
 20
0.1913724359539941
 30
0.0
 10
1.668059887553145
 20
0.1997099696230247
 30
0.0
 10
1.660104503951176
 20
0.205284928457363
 30
0.0
 10
1.651700839884198
 20
0.2088297792775097
 30
0.0
 10
1.643083942229555
 20
0.2110820744139782
 30
0.0
 10
1.632492880198275
 20
0.2133342370097852
 30
0.0
 10
1.619755527292272
 20
0.2148436414897444
 30
0.0
 10
1.6049827755959
 20
0.2161382324283892
 30
0.0
 10
1.588121110934625
 20
0.2170055048256006
 30
0.0
 10
1.569121456000778
 20
0.2175583862785737
 30
0.0
 10
1.555760277391124
 20
0.2176164398310099
 30
0.0
 10
1.548713235294117
 20
0.2176470588235292
 30
0.0
  0
LINE
  5
B8
330
1F
100
AcDbEntity
  8
0
  6
Continuous
 62
     7
370
    25
100
AcDbLine
 10
1.5487132353
 20
0.2176470588
 30
0.0
 11
1.5233455882
 21
0.2176470588
 31
0.0
  0
LINE
  5
B9
330
1F
100
AcDbEntity
  8
0
  6
Continuous
 62
     7
370
    25
100
AcDbLine
 10
1.5233455882
 20
0.2176470588
 30
0.0
 11
1.5623161765
 21
0.3323529412
 31
0.0
  0
SPLINE
  5
BA
330
1F
100
AcDbEntity
  8
0
  6
Continuous
 62
     7
370
    25
100
AcDbSpline
210
0.0
220
0.0
230
1.0
 70
     8
 71
     3
 72
    15
 73
    11
 74
     0
 42
0.00000001
 43
0.00000001
 40
0.0
 40
0.0
 40
0.0
 40
0.0
 40
0.1300661149480202
 40
0.257707794572598
 40
0.3831325611879421
 40
0.507387531521695
 40
0.6299632034979126
 40
0.752981873157453
 40
0.8762229257334073
 40
0.9999999999999999
 40
0.9999999999999999
 40
0.9999999999999999
 40
0.9999999999999999
 10
1.562316176470588
 20
0.3323529411764704
 30
0.0
 10
1.578053790809303
 20
0.3360171160151112
 30
0.0
 10
1.609235669999629
 20
0.3432771653905529
 30
0.0
 10
1.654694648117018
 20
0.3575045524790126
 30
0.0
 10
1.698419286477662
 20
0.3744545397672638
 30
0.0
 10
1.740320532733246
 20
0.3940891848900256
 30
0.0
 10
1.780459714278093
 20
0.4165022430092855
 30
0.0
 10
1.818893729235179
 20
0.4414846997701962
 30
0.0
 10
1.855620148398287
 20
0.4692107515609174
 30
0.0
 10
1.878450006692342
 20
0.4897220808703638
 30
0.0
 10
1.889889705882352
 20
0.4999999999999998
 30
0.0
  0
LINE
  5
BB
330
1F
100
AcDbEntity
  8
0
  6
Continuous
 62
     7
370
    25
100
AcDbLine
 10
-2.25
 20
1.0
 30
0.0
 11
-2.25
 21
-1.0
 31
0.0
  0
ARC
  5
BC
330
1F
100
AcDbEntity
  8
0
  6
Continuous
 62
     7
370
    25
100
AcDbCircle
 10
-2.0
 20
-1.0
 30
0.0
 40
0.25
100
AcDbArc
 50
180.0
 51
270.0
  0
LINE
  5
BD
330
1F
100
AcDbEntity
  8
0
  6
Continuous
 62
     7
370
    25
100
AcDbLine
 10
-2.0
 20
-1.25
 30
0.0
 11
2.0
 21
-1.25
 31
0.0
  0
ARC
  5
BE
330
1F
100
AcDbEntity
  8
0
  6
Continuous
 62
     7
370
    25
100
AcDbCircle
 10
2.0
 20
-1.0
 30
0.0
 40
0.25
100
AcDbArc
 50
270.0
 51
0.0
  0
LINE
  5
BF
330
1F
100
AcDbEntity
  8
0
  6
Continuous
 62
     7
370
    25
100
AcDbLine
 10
2.25
 20
-1.0
 30
0.0
 11
2.25
 21
1.0
 31
0.0
  0
ARC
  5
C0
330
1F
100
AcDbEntity
  8
0
  6
Continuous
 62
     7
370
    25
100
AcDbCircle
 10
2.0
 20
1.0
 30
0.0
 40
0.2500000000000002
100
AcDbArc
 50
0.0
 51
90.0
  0
LINE
  5
C1
330
1F
100
AcDbEntity
  8
0
  6
Continuous
 62
     7
370
    25
100
AcDbLine
 10
2.0
 20
1.25
 30
0.0
 11
-2.0
 21
1.25
 31
0.0
  0
ARC
  5
C2
330
1F
100
AcDbEntity
  8
0
  6
Continuous
 62
     7
370
    25
100
AcDbCircle
 10
-2.0
 20
1.0
 30
0.0
 40
0.25
100
AcDbArc
 50
90.0
 51
180.0
  0
LINE
  5
C3
330
1F
100
AcDbEntity
  8
0
  6
Continuous
 62
     7
370
    25
100
AcDbLine
 10
-2.0779411765
 20
-0.5
 30
0.0
 11
-1.7380514706
 21
0.5
 31
0.0
  0
LINE
  5
C4
330
1F
100
AcDbEntity
  8
0
  6
Continuous
 62
     7
370
    25
100
AcDbLine
 10
-1.7380514706
 20
0.5
 30
0.0
 11
-1.4740808824
 21
0.5
 31
0.0
  0
SPLINE
  5
C5
330
1F
100
AcDbEntity
  8
0
  6
Continuous
 62
     7
370
    25
100
AcDbSpline
210
0.0
220
0.0
230
1.0
 70
     8
 71
     3
 72
    31
 73
    27
 74
     0
 42
0.00000001
 43
0.00000001
 40
0.0
 40
0.0
 40
0.0
 40
0.0
 40
0.055607362988547
 40
0.107701342759077
 40
0.1558934368687692
 40
0.2005982032378607
 40
0.2415404201975671
 40
0.2791442414182038
 40
0.3134089449411037
 40
0.3441241535108718
 40
0.3989130017777317
 40
0.4472919126190699
 40
0.4904676141075842
 40
0.5301423439469962
 40
0.568596815912914
 40
0.6086849165902045
 40
0.650673592957921
 40
0.6964628208136497
 40
0.721950747154332
 40
0.750804405658511
 40
0.7834442103572141
 40
0.8195994400234956
 40
0.859307476227
 40
0.902596497601032
 40
0.9493670106557066
 40
1.0
 40
1.0
 40
1.0
 40
1.0
 10
-1.474080882352942
 20
0.4999999999999998
 30
0.0
 10
-1.465440027558497
 20
0.5000015865871176
 30
0.0
 10
-1.448704264272265
 20
0.5000046595176395
 30
0.0
 10
-1.424498623488595
 20
0.4989851366954961
 30
0.0
 10
-1.402008780949729
 20
0.4977017160744372
 30
0.0
 10
-1.381263349939795
 20
0.4961928411991565
 30
0.0
 10
-1.362256240206231
 20
0.4937757828211716
 30
0.0
 10
-1.34498228780059
 20
0.4908015444149088
 30
0.0
 10
-1.329348901503573
 20
0.4876354721161748
 30
0.0
 10
-1.311443411488098
 20
0.4825486652839251
 30
0.0
 10
-1.291805168218334
 20
0.4754641221545826
 30
0.0
 10
-1.271906041637605
 20
0.4643181780523443
 30
0.0
 10
-1.255647341099495
 20
0.4517424919625566
 30
0.0
 10
-1.24422375606973
 20
0.436496518421416
 30
0.0
 10
-1.236378460573205
 20
0.4197976726601693
 30
0.0
 10
-1.23133509284658
 20
0.4016484906045174
 30
0.0
 10
-1.229711599463402
 20
0.3817650841152331
 30
0.0
 10
-1.230457016400725
 20
0.3641343483368372
 30
0.0
 10
-1.232734785063968
 20
0.348735826377746
 30
0.0
 10
-1.235167207832346
 20
0.335441574720832
 30
0.0
 10
-1.238251109213425
 20
0.3205830108275044
 30
0.0
 10
-1.24234488583567
 20
0.3042253802897882
 30
0.0
 10
-1.247314626990226
 20
0.2863896762420565
 30
0.0
 10
-1.253255690067473
 20
0.2671208781262462
 30
0.0
 10
-1.259890984270672
 20
0.2462922376373272
 30
0.0
 10
-1.264631394228299
 20
0.2319197429808008
 30
0.0
 10
-1.267095588235295
 20
0.2244485294117645
 30
0.0
  0
LINE
  5
C6
330
1F
100
AcDbEntity
  8
0
  6
Continuous
 62
     7
370
    25
100
AcDbLine
 10
-1.2670955882
 20
0.2244485294
 30
0.0
 11
-1.2961397059
 21
0.1386029412
 31
0.0
  0
SPLINE
  5
C7
330
1F
100
AcDbEntity
  8
0
  6
Continuous
 62
     7
370
    25
100
AcDbSpline
210
0.0
220
0.0
230
1.0
 70
     8
 71
     3
 72
    23
 73
    19
 74
     0
 42
0.00000001
 43
0.00000001
 40
0.0
 40
0.0
 40
0.0
 40
0.0
 40
0.0571624504889951
 40
0.1106559660482741
 40
0.1610855619385447
 40
0.2075409733381595
 40
0.2514524112516655
 40
0.2915441639593558
 40
0.3288990632267522
 40
0.3630467405162588
 40
0.429129891031813
 40
0.4968437853836534
 40
0.5675520206346378
 40
0.6430271783452862
 40
0.7231365013588903
 40
0.8091055106714368
 40
0.900885033279814
 40
1.0
 40
1.0
 40
1.0
 40
1.0
 10
-1.296139705882354
 20
0.1386029411764704
 30
0.0
 10
-1.298798779076389
 20
0.1309915779897675
 30
0.0
 10
-1.303946254570563
 20
0.1162573820418343
 30
0.0
 10
-1.312045217120799
 20
0.0950263783667648
 30
0.0
 10
-1.320244356514726
 20
0.0754608491191211
 30
0.0
 10
-1.328603294061251
 20
0.0574436193249679
 30
0.0
 10
-1.336927353206459
 20
0.0410281141328218
 30
0.0
 10
-1.345437908045962
 20
0.0261675352832876
 30
0.0
 10
-1.354028470407362
 20
0.0129688198435639
 30
0.0
 10
-1.365581512035385
 20
-0.0026389265081964
 30
0.0
 10
-1.381871889259614
 20
-0.0199712426785457
 30
0.0
 10
-1.4045620335794
 20
-0.037934606849992
 30
0.0
 10
-1.430656214461553
 20
-0.0532409011158062
 30
0.0
 10
-1.459957736094395
 20
-0.0660592633929876
 30
0.0
 10
-1.492562313423746
 20
-0.0761833936529006
 30
0.0
 10
-1.528304429403909
 20
-0.0831862041497236
 30
0.0
 10
-1.567177055588682
 20
-0.0874314941188269
 30
0.0
 10
-1.594106242188672
 20
-0.0879605837298612
 30
0.0
 10
-1.608088235294119
 20
-0.0882352941176472
 30
0.0
  0
LINE
  5
C8
330
1F
100
AcDbEntity
  8
0
  6
Continuous
 62
     7
370
    25
100
AcDbLine
 10
-1.6080882353
 20
-0.0882352941
 30
0.0
 11
-1.6792279412
 21
-0.0882352941
 31
0.0
  0
LINE
  5
C9
330
1F
100
AcDbEntity
  8
0
  6
Continuous
 62
     7
370
    25
100
AcDbLine
 10
-1.6792279412
 20
-0.0882352941
 30
0.0
 11
-1.8191176471
 21
-0.5
 31
0.0
  0
LINE
  5
CA
330
1F
100
AcDbEntity
  8
0
  6
Continuous
 62
     7
370
    25
100
AcDbLine
 10
-1.8191176471
 20
-0.5
 30
0.0
 11
-2.0779411765
 21
-0.5
 31
0.0
  0
LINE
  5
CB
330
1F
100
AcDbEntity
  8
0
  6
Continuous
 62
     7
370
    25
100
AcDbLine
 10
0.2622426471
 20
0.5
 30
0.0
 11
0.8269485294
 21
0.5
 31
0.0
  0
LINE
  5
CC
330
1F
100
AcDbEntity
  8
0
  6
Continuous
 62
     7
370
    25
100
AcDbLine
 10
0.8269485294
 20
0.5
 30
0.0
 11
0.7589338235
 21
0.3
 31
0.0
  0
LINE
  5
CD
330
1F
100
AcDbEntity
  8
0
  6
Continuous
 62
     7
370
    25
100
AcDbLine
 10
0.7589338235
 20
0.3
 30
0.0
 11
0.6059926471
 21
0.3
 31
0.0
  0
LINE
  5
CE
330
1F
100
AcDbEntity
  8
0
  6
Continuous
 62
     7
370
    25
100
AcDbLine
 10
0.6059926471
 20
0.3
 30
0.0
 11
0.3341176471
 21
-0.5
 31
0.0
  0
LINE
  5
CF
330
1F
100
AcDbEntity
  8
0
  6
Continuous
 62
     7
370
    25
100
AcDbLine
 10
0.3341176471
 20
-0.5
 30
0.0
 11
0.0752941176
 21
-0.5
 31
0.0
  0
LINE
  5
D0
330
1F
100
AcDbEntity
  8
0
  6
Continuous
 62
     7
370
    25
100
AcDbLine
 10
0.0752941176
 20
-0.5
 30
0.0
 11
0.3471691176
 21
0.3
 31
0.0
  0
LINE
  5
D1
330
1F
100
AcDbEntity
  8
0
  6
Continuous
 62
     7
370
    25
100
AcDbLine
 10
0.3471691176
 20
0.3
 30
0.0
 11
0.1942279412
 21
0.3
 31
0.0
  0
LINE
  5
D2
330
1F
100
AcDbEntity
  8
0
  6
Continuous
 62
     7
370
    25
100
AcDbLine
 10
0.1942279412
 20
0.3
 30
0.0
 11
0.2622426471
 21
0.5
 31
0.0
  0
LINE
  5
D3
330
1F
100
AcDbEntity
  8
0
  6
Continuous
 62
     7
370
    25
100
AcDbLine
 10
-1.0124632353
 20
0.5
 30
0.0
 11
-0.7536397059
 21
0.5
 31
0.0
  0
LINE
  5
D4
330
1F
100
AcDbEntity
  8
0
  6
Continuous
 62
     7
370
    25
100
AcDbLine
 10
-0.7536397059
 20
0.5
 30
0.0
 11
-1.0255147059
 21
-0.3
 31
0.0
  0
LINE
  5
D5
330
1F
100
AcDbEntity
  8
0
  6
Continuous
 62
     7
370
    25
100
AcDbLine
 10
-1.0255147059
 20
-0.3
 30
0.0
 11
-0.8608088235
 21
-0.3
 31
0.0
  0
LINE
  5
D6
330
1F
100
AcDbEntity
  8
0
  6
Continuous
 62
     7
370
    25
100
AcDbLine
 10
-0.8608088235
 20
-0.3
 30
0.0
 11
-0.9288235294
 21
-0.5
 31
0.0
  0
LINE
  5
D7
330
1F
100
AcDbEntity
  8
0
  6
Continuous
 62
     7
370
    25
100
AcDbLine
 10
-0.9288235294
 20
-0.5
 30
0.0
 11
-1.3523529412
 21
-0.5
 31
0.0
  0
LINE
  5
D8
330
1F
100
AcDbEntity
  8
0
  6
Continuous
 62
     7
370
    25
100
AcDbLine
 10
-1.3523529412
 20
-0.5
 30
0.0
 11
-1.0124632353
 21
0.5
 31
0.0
  0
CIRCLE
  5
D9
330
1F
100
AcDbEntity
  8
0
  6
Continuous
 62
     7
370
    25
100
AcDbCircle
 10
2.0
 20
1.0
 30
0.0
 40
0.0800000000000001
  0
CIRCLE
  5
DA
330
1F
100
AcDbEntity
  8
0
  6
Continuous
 62
     7
370
    25
100
AcDbCircle
 10
-2.0
 20
1.0
 30
0.0
 40
0.0800000000000001
  0
LINE
  5
DB
330
1F
100
AcDbEntity
  8
0
  6
Continuous
 62
     7
370
    25
100
AcDbLine
 10
1.1883042279
 20
-0.8955078125
 30
0.0
 11
1.183995864
 21
-0.9080882353
 31
0.0
  0
LINE
  5
DC
330
1F
100
AcDbEntity
  8
0
  6
Continuous
 62
     7
370
    25
100
AcDbLine
 10
1.183995864
 20
-0.9080882353
 30
0.0
 11
1.1067899816
 21
-0.9080882353
 31
0.0
  0
LINE
  5
DD
330
1F
100
AcDbEntity
  8
0
  6
Continuous
 62
     7
370
    25
100
AcDbLine
 10
1.1067899816
 20
-0.9080882353
 30
0.0
 11
1.1151769301
 21
-0.8833869485
 31
0.0
  0
SPLINE
  5
DE
330
1F
100
AcDbEntity
  8
0
  6
Continuous
 62
     7
370
    25
100
AcDbSpline
210
0.0
220
0.0
230
1.0
 70
     8
 71
     3
 72
    19
 73
    15
 74
     0
 42
0.00000001
 43
0.00000001
 40
0.0
 40
0.0
 40
0.0
 40
0.0
 40
0.1307958572431202
 40
0.2475036275791555
 40
0.3511936652251691
 40
0.4414866316503389
 40
0.5199717148359198
 40
0.584108565913036
 40
0.6375613441604344
 40
0.6794931532895504
 40
0.7496457903749922
 40
0.8207028459691488
 40
0.9013897444178716
 40
1.0
 40
1.0
 40
1.0
 40
1.0
 10
1.115176930147058
 20
-0.8833869485294119
 30
0.0
 10
1.11565000105277
 20
-0.8820125616758546
 30
0.0
 10
1.116545188161396
 20
-0.8794118238610463
 30
0.0
 10
1.117609447662691
 20
-0.8756561385382824
 30
0.0
 10
1.118541727454374
 20
-0.8723339831988517
 30
0.0
 10
1.119281882218554
 20
-0.8693933566358053
 30
0.0
 10
1.119632791430751
 20
-0.8668294409773891
 30
0.0
 10
1.119942816338107
 20
-0.8646665203879892
 30
0.0
 10
1.119865344133829
 20
-0.8628902856202392
 30
0.0
 10
1.119620346087331
 20
-0.8610594677767085
 30
0.0
 10
1.118626285324621
 20
-0.8591972053717277
 30
0.0
 10
1.116642162171142
 20
-0.857648564574234
 30
0.0
 10
1.113968896645288
 20
-0.8567155428674629
 30
0.0
 10
1.111968660558066
 20
-0.8566523835587382
 30
0.0
 10
1.11086856617647
 20
-0.8566176470588236
 30
0.0
  0
SPLINE
  5
DF
330
1F
100
AcDbEntity
  8
0
  6
Continuous
 62
     7
370
    25
100
AcDbSpline
210
0.0
220
0.0
230
1.0
 70
     8
 71
     3
 72
    15
 73
    11
 74
     0
 42
0.00000001
 43
0.00000001
 40
0.0
 40
0.0
 40
0.0
 40
0.0
 40
0.103287799075662
 40
0.2046340762033916
 40
0.309042448548943
 40
0.4211385819020794
 40
0.5430498989917806
 40
0.6795792376226325
 40
0.8311320707146198
 40
1.0
 40
1.0
 40
1.0
 40
1.0
 10
1.11086856617647
 20
-0.8566176470588236
 30
0.0
 10
1.109577399875627
 20
-0.856697807948044
 30
0.0
 10
1.107019337591771
 20
-0.8568566229258052
 30
0.0
 10
1.103302482255854
 20
-0.8580545964316917
 30
0.0
 10
1.09987080354457
 20
-0.8600885624764417
 30
0.0
 10
1.096604803031246
 20
-0.8628080581871128
 30
0.0
 10
1.093684694377374
 20
-0.8664240228284559
 30
0.0
 10
1.090917004311509
 20
-0.8707419876466463
 30
0.0
 10
1.08846167042484
 20
-0.8759106151974387
 30
0.0
 10
1.087109617057211
 20
-0.8796780775365575
 30
0.0
 10
1.086397058823529
 20
-0.8816636029411765
 30
0.0
  0
SPLINE
  5
E0
330
1F
100
AcDbEntity
  8
0
  6
Continuous
 62
     7
370
    25
100
AcDbSpline
210
0.0
220
0.0
230
1.0
 70
     8
 71
     3
 72
    11
 73
     7
 74
     0
 42
0.00000001
 43
0.00000001
 40
0.0
 40
0.0
 40
0.0
 40
0.0
 40
0.3191444525926393
 40
0.5900212766507473
 40
0.8164232718266415
 40
1.0
 40
1.0
 40
1.0
 40
1.0
 10
1.086397058823529
 20
-0.8816636029411765
 30
0.0
 10
1.085575158186964
 20
-0.8842003591882911
 30
0.0
 10
1.084055661736605
 20
-0.8888902109068942
 30
0.0
 10
1.08247553291744
 20
-0.8955210390580925
 30
0.0
 10
1.081625468192
 20
-0.9011784999242386
 30
0.0
 10
1.081866070379654
 20
-0.9046021139882151
 30
0.0
 10
1.081973805147058
 20
-0.9061351102941176
 30
0.0
  0
SPLINE
  5
E1
330
1F
100
AcDbEntity
  8
0
  6
Continuous
 62
     7
370
    25
100
AcDbSpline
210
0.0
220
0.0
230
1.0
 70
     8
 71
     3
 72
    15
 73
    11
 74
     0
 42
0.00000001
 43
0.00000001
 40
0.0
 40
0.0
 40
0.0
 40
0.0
 40
0.0803696995777636
 40
0.1710936958583042
 40
0.2738924611495077
 40
0.3885922914301321
 40
0.5165061217492887
 40
0.6616566629605545
 40
0.8216408219201118
 40
1.0
 40
1.0
 40
1.0
 40
1.0
 10
1.081973805147058
 20
-0.9061351102941176
 30
0.0
 10
1.082097482196363
 20
-0.9068334452287881
 30
0.0
 10
1.082360770022117
 20
-0.9083200839190833
 30
0.0
 10
1.083424506328787
 20
-0.9105041348800564
 30
0.0
 10
1.084855762489914
 20
-0.9128038122922466
 30
0.0
 10
1.086783526898742
 20
-0.915159204555737
 30
0.0
 10
1.089176121480195
 20
-0.9175886221574789
 30
0.0
 10
1.09204470846472
 20
-0.9200930023485985
 30
0.0
 10
1.09540683849132
 20
-0.9226937655550348
 30
0.0
 10
1.097857787583692
 20
-0.9243769488482442
 30
0.0
 10
1.09914981617647
 20
-0.9252642463235294
 30
0.0
  0
SPLINE
  5
E2
330
1F
100
AcDbEntity
  8
0
  6
Continuous
 62
     7
370
    25
100
AcDbSpline
210
0.0
220
0.0
230
1.0
 70
     8
 71
     3
 72
    15
 73
    11
 74
     0
 42
0.00000001
 43
0.00000001
 40
0.0
 40
0.0
 40
0.0
 40
0.0
 40
0.1761795154621958
 40
0.336866503537376
 40
0.482760464205793
 40
0.6137078089903812
 40
0.7301265532228817
 40
0.8326126423624981
 40
0.9216288008528636
 40
1.0
 40
1.0
 40
1.0
 40
1.0
 10
1.09914981617647
 20
-0.9252642463235294
 30
0.0
 10
1.10282452947569
 20
-0.9278056114399285
 30
0.0
 10
1.109850816370411
 20
-0.9326648641102933
 30
0.0
 10
1.119646773826054
 20
-0.9400137886345415
 30
0.0
 10
1.128215591396362
 20
-0.9470680410816253
 30
0.0
 10
1.135602234492024
 20
-0.95377422102679
 30
0.0
 10
1.141792525121003
 20
-0.9601418563187133
 30
0.0
 10
1.146779267665647
 20
-0.9661565940749841
 30
0.0
 10
1.15060404677272
 20
-0.9718706959610485
 30
0.0
 10
1.152297604789992
 20
-0.9757705741657348
 30
0.0
 10
1.153090533088235
 20
-0.9775965073529412
 30
0.0
  0
SPLINE
  5
E3
330
1F
100
AcDbEntity
  8
0
  6
Continuous
 62
     7
370
    25
100
AcDbSpline
210
0.0
220
0.0
230
1.0
 70
     8
 71
     3
 72
    15
 73
    11
 74
     0
 42
0.00000001
 43
0.00000001
 40
0.0
 40
0.0
 40
0.0
 40
0.0
 40
0.0845629235934789
 40
0.1787016126315143
 40
0.2829591211170897
 40
0.4000836612261965
 40
0.5292511729675382
 40
0.672726733178842
 40
0.8293407918297429
 40
1.0
 40
1.0
 40
1.0
 40
1.0
 10
1.153090533088235
 20
-0.9775965073529413
 30
0.0
 10
1.153641264728255
 20
-0.9794613824051696
 30
0.0
 10
1.154805091947285
 20
-0.9834023078725953
 30
0.0
 10
1.155526222254514
 20
-0.9898897175311919
 30
0.0
 10
1.155538460538318
 20
-0.9971392314040974
 30
0.0
 10
1.154893857128926
 20
-1.00517172563267
 30
0.0
 10
1.153462500157833
 20
-1.014012168257459
 30
0.0
 10
1.151326062350964
 20
-1.02363767915447
 30
0.0
 10
1.148422375148737
 20
-1.034053206729406
 30
0.0
 10
1.146091416014263
 20
-1.041196794965892
 30
0.0
 10
1.144875919117647
 20
-1.044921875
 30
0.0
  0
SPLINE
  5
E4
330
1F
100
AcDbEntity
  8
0
  6
Continuous
 62
     7
370
    25
100
AcDbSpline
210
0.0
220
0.0
230
1.0
 70
     8
 71
     3
 72
    27
 73
    23
 74
     0
 42
0.00000001
 43
0.00000001
 40
0.0
 40
0.0
 40
0.0
 40
0.0
 40
0.053163868685441
 40
0.103354628789862
 40
0.1505467783094372
 40
0.1945250946682866
 40
0.2356679467325575
 40
0.274221650260851
 40
0.3099906460348011
 40
0.3433977200683399
 40
0.3758222115707104
 40
0.4092237104799042
 40
0.44427923535458
 40
0.4803661532921913
 40
0.5182014725515662
 40
0.557627671924017
 40
0.5990756853325963
 40
0.6421512231973878
 40
0.7301840467275376
 40
0.8182944042859948
 40
0.9082896887285928
 40
1.0
 40
1.0
 40
1.0
 40
1.0
 10
1.144875919117647
 20
-1.044921875
 30
0.0
 10
1.1439081328412
 20
-1.047643954245344
 30
0.0
 10
1.142026682265397
 20
-1.052935884590064
 30
0.0
 10
1.139141210624842
 20
-1.060594208143202
 30
0.0
 10
1.136064604353104
 20
-1.067634775026943
 30
0.0
 10
1.13306201182448
 20
-1.074171001060043
 30
0.0
 10
1.129872932305826
 20
-1.080090654029067
 30
0.0
 10
1.126687623051778
 20
-1.085500120887148
 30
0.0
 10
1.1233936390419
 20
-1.090343816938057
 30
0.0
 10
1.120041149831527
 20
-1.094737168068101
 30
0.0
 10
1.116392890549134
 20
-1.098717362009851
 30
0.0
 10
1.112396396801662
 20
-1.102477153514978
 30
0.0
 10
1.107983177384126
 20
-1.106060519355923
 30
0.0
 10
1.103191041580124
 20
-1.109547203854969
 30
0.0
 10
1.097952407243131
 20
-1.112795270104145
 30
0.0
 10
1.092305734470948
 20
-1.115922223408246
 30
0.0
 10
1.086212573636088
 20
-1.118799355045573
 30
0.0
 10
1.077641606028392
 20
-1.122608921923384
 30
0.0
 10
1.066345312299521
 20
-1.126471554338542
 30
0.0
 10
1.052280730222717
 20
-1.129912388338133
 30
0.0
 10
1.037724178499542
 20
-1.131946204761687
 30
0.0
 10
1.027847833082954
 20
-1.132216511940818
 30
0.0
 10
1.022863051470588
 20
-1.132352941176471
 30
0.0
  0
SPLINE
  5
E5
330
1F
100
AcDbEntity
  8
0
  6
Continuous
 62
     7
370
    25
100
AcDbSpline
210
0.0
220
0.0
230
1.0
 70
     8
 71
     3
 72
    31
 73
    27
 74
     0
 42
0.00000001
 43
0.00000001
 40
0.0
 40
0.0
 40
0.0
 40
0.0
 40
0.0535203505194098
 40
0.1045432032275927
 40
0.1527923249160177
 40
0.1988610399886403
 40
0.24259645938172
 40
0.2842593247989079
 40
0.3239900641005216
 40
0.3627799176102492
 40
0.3997486588787554
 40
0.4346989414691115
 40
0.4674760750645427
 40
0.499283222488537
 40
0.5301785502847158
 40
0.5610482300929447
 40
0.5917963752568215
 40
0.623440105400509
 40
0.6575964096655865
 40
0.6948812863128199
 40
0.736259736569917
 40
0.7809962450789911
 40
0.8300622534675263
 40
0.8827172373324457
 40
0.9392766857977226
 40
0.9999999999999999
 40
0.9999999999999999
 40
0.9999999999999999
 40
0.9999999999999999
 10
1.022863051470588
 20
-1.132352941176471
 30
0.0
 10
1.020161555192789
 20
-1.132332519065443
 30
0.0
 10
1.014884626479736
 20
-1.132292627830002
 30
0.0
 10
1.00719884181611
 20
-1.131614957126846
 30
0.0
 10
0.9999233595286708
 20
-1.130671378856474
 30
0.0
 10
0.9930879179058371
 20
-1.129299282854852
 30
0.0
 10
0.9866861611880474
 20
-1.127533050399392
 30
0.0
 10
0.9807612442025939
 20
-1.125335090936041
 30
0.0
 10
0.9752326497666453
 20
-1.122821778372389
 30
0.0
 10
0.9702181476576716
 20
-1.119832749528024
 30
0.0
 10
0.9656734503080188
 20
-1.116574228906038
 30
0.0
 10
0.9616917498310706
 20
-1.113084422472977
 30
0.0
 10
0.9583212477702728
 20
-1.109350530053668
 30
0.0
 10
0.9554558632188507
 20
-1.105458620390568
 30
0.0
 10
0.9532809262433103
 20
-1.101252465189213
 30
0.0
 10
0.9515762819779605
 20
-1.096893482509852
 30
0.0
 10
0.9505503530871638
 20
-1.092283747085571
 30
0.0
 10
0.9500914255773668
 20
-1.087421498011117
 30
0.0
 10
0.9502242547779876
 20
-1.082215980427498
 30
0.0
 10
0.950594391849149
 20
-1.076532384412013
 30
0.0
 10
0.9515153266901898
 20
-1.070369647543801
 30
0.0
 10
0.9527028532264045
 20
-1.063652041243665
 30
0.0
 10
0.954388030184026
 20
-1.056452920065621
 30
0.0
 10
0.9564904773642904
 20
-1.048748137944491
 30
0.0
 10
0.9588695164410317
 20
-1.040508133420981
 30
0.0
 10
0.9607619287992277
 20
-1.034900264866101
 30
0.0
 10
0.9617417279411763
 20
-1.031996783088236
 30
0.0
  0
LINE
  5
E6
330
1F
100
AcDbEntity
  8
0
  6
Continuous
 62
     7
370
    25
100
AcDbLine
 10
0.9617417279
 20
-1.0319967831
 30
0.0
 11
0.9688648897
 21
-1.0110294118
 31
0.0
  0
LINE
  5
E7
330
1F
100
AcDbEntity
  8
0
  6
Continuous
 62
     7
370
    25
100
AcDbLine
 10
0.9688648897
 20
-1.0110294118
 30
0.0
 11
1.0460707721
 21
-1.0110294118
 31
0.0
  0
LINE
  5
E8
330
1F
100
AcDbEntity
  8
0
  6
Continuous
 62
     7
370
    25
100
AcDbLine
 10
1.0460707721
 20
-1.0110294118
 30
0.0
 11
1.0323414522
 21
-1.0515280331
 31
0.0
  0
SPLINE
  5
E9
330
1F
100
AcDbEntity
  8
0
  6
Continuous
 62
     7
370
    25
100
AcDbSpline
210
0.0
220
0.0
230
1.0
 70
     8
 71
     3
 72
    19
 73
    15
 74
     0
 42
0.00000001
 43
0.00000001
 40
0.0
 40
0.0
 40
0.0
 40
0.0
 40
0.1266119174319722
 40
0.2391533727478578
 40
0.3396390274492859
 40
0.4278328486357904
 40
0.5042885188488552
 40
0.5677254490986714
 40
0.6200831002225592
 40
0.6623681562952425
 40
0.7340204649842171
 40
0.8076317399858608
 40
0.893343802268058
 40
1.0
 40
1.0
 40
1.0
 40
1.0
 10
1.032341452205882
 20
-1.051528033088235
 30
0.0
 10
1.031832611651558
 20
-1.053018113442162
 30
0.0
 10
1.030871478314146
 20
-1.05583268058193
 30
0.0
 10
1.029673486394892
 20
-1.059882838506367
 30
0.0
 10
1.028664614538106
 20
-1.063491425369621
 30
0.0
 10
1.02798238552754
 20
-1.066718328318624
 30
0.0
 10
1.02750876539232
 20
-1.069516615680737
 30
0.0
 10
1.02726761110189
 20
-1.071894891409149
 30
0.0
 10
1.027217566685268
 20
-1.073868170536249
 30
0.0
 10
1.027577873234723
 20
-1.075915671672087
 30
0.0
 10
1.028692751842321
 20
-1.078056265386816
 30
0.0
 10
1.031086649398947
 20
-1.079786166099965
 30
0.0
 10
1.034304651381429
 20
-1.080727022802126
 30
0.0
 10
1.036700271024844
 20
-1.080826949707109
 30
0.0
 10
1.038028492647058
 20
-1.080882352941177
 30
0.0
  0
SPLINE
  5
EA
330
1F
100
AcDbEntity
  8
0
  6
Continuous
 62
     7
370
    25
100
AcDbSpline
210
0.0
220
0.0
230
1.0
 70
     8
 71
     3
 72
    15
 73
    11
 74
     0
 42
0.00000001
 43
0.00000001
 40
0.0
 40
0.0
 40
0.0
 40
0.0
 40
0.1076187530358853
 40
0.21385539633021
 40
0.3194686552525612
 40
0.4314404696648805
 40
0.5536182715245344
 40
0.6889820207102363
 40
0.8359649449670374
 40
1.0
 40
1.0
 40
1.0
 40
1.0
 10
1.038028492647058
 20
-1.080882352941177
 30
0.0
 10
1.039456001504625
 20
-1.080812526005884
 30
0.0
 10
1.042292686226273
 20
-1.080673768898035
 30
0.0
 10
1.04634382806051
 20
-1.079330158334325
 30
0.0
 10
1.050139070648016
 20
-1.077293030664346
 30
0.0
 10
1.053541047701258
 20
-1.074312901181053
 30
0.0
 10
1.05673998166053
 20
-1.070597177816814
 30
0.0
 10
1.059543435977589
 20
-1.066022680114959
 30
0.0
 10
1.06219033053953
 20
-1.060733774961733
 30
0.0
 10
1.063558957971461
 20
-1.056850487574055
 30
0.0
 10
1.064280790441176
 20
-1.054802389705882
 30
0.0
  0
SPLINE
  5
EB
330
1F
100
AcDbEntity
  8
0
  6
Continuous
 62
     7
370
    25
100
AcDbSpline
210
0.0
220
0.0
230
1.0
 70
     8
 71
     3
 72
    15
 73
    11
 74
     0
 42
0.00000001
 43
0.00000001
 40
0.0
 40
0.0
 40
0.0
 40
0.0
 40
0.1861276696829129
 40
0.3548287864285578
 40
0.5045046457812551
 40
0.6370554798396292
 40
0.7501513977649015
 40
0.8477437129115265
 40
0.929705306930238
 40
1.0
 40
1.0
 40
1.0
 40
1.0
 10
1.064280790441176
 20
-1.054802389705882
 30
0.0
 10
1.065022688592177
 20
-1.052547403806382
 30
0.0
 10
1.066437023285249
 20
-1.048248559300907
 30
0.0
 10
1.06822685233766
 20
-1.042066413318314
 30
0.0
 10
1.069575076928124
 20
-1.036473060953077
 30
0.0
 10
1.070455437803688
 20
-1.031505005788496
 30
0.0
 10
1.070877298429599
 20
-1.02714103305787
 30
0.0
 10
1.070914731645402
 20
-1.023409252166599
 30
0.0
 10
1.070535830869694
 20
-1.020212833725095
 30
0.0
 10
1.06979353519788
 20
-1.0184103210255
 30
0.0
 10
1.069450827205882
 20
-1.017578125
 30
0.0
  0
SPLINE
  5
EC
330
1F
100
AcDbEntity
  8
0
  6
Continuous
 62
     7
370
    25
100
AcDbSpline
210
0.0
220
0.0
230
1.0
 70
     8
 71
     3
 72
    15
 73
    11
 74
     0
 42
0.00000001
 43
0.00000001
 40
0.0
 40
0.0
 40
0.0
 40
0.0
 40
0.0670119753424167
 40
0.1504372153703084
 40
0.2490584651804988
 40
0.3661968380994213
 40
0.4991646790068627
 40
0.6490334385222121
 40
0.8150195656280815
 40
1.0
 40
1.0
 40
1.0
 40
1.0
 10
1.069450827205882
 20
-1.017578125
 30
0.0
 10
1.068970917543513
 20
-1.016780560057709
 30
0.0
 10
1.067893553790734
 20
-1.014990082335151
 30
0.0
 10
1.065660714760284
 20
-1.012338346994982
 30
0.0
 10
1.062801685279357
 20
-1.009331642168243
 30
0.0
 10
1.059321642304156
 20
-1.00596717082532
 30
0.0
 10
1.055153858791446
 20
-1.002302986852273
 30
0.0
 10
1.050401150094026
 20
-0.9982797053103172
 30
0.0
 10
1.044954334064779
 20
-0.9939648909420584
 30
0.0
 10
1.041096048154929
 20
-0.9909952997694128
 30
0.0
 10
1.0390625
 20
-0.9894301470588236
 30
0.0
  0
SPLINE
  5
ED
330
1F
100
AcDbEntity
  8
0
  6
Continuous
 62
     7
370
    25
100
AcDbSpline
210
0.0
220
0.0
230
1.0
 70
     8
 71
     3
 72
    23
 73
    19
 74
     0
 42
0.00000001
 43
0.00000001
 40
0.0
 40
0.0
 40
0.0
 40
0.0
 40
0.0680794656302956
 40
0.1309934715359107
 40
0.1876461945694474
 40
0.238780288233398
 40
0.2841318380278081
 40
0.3236514281576169
 40
0.3577782337786164
 40
0.3862669774035855
 40
0.4395294208455457
 40
0.496229953053284
 40
0.5582079293480776
 40
0.6263877723068451
 40
0.7030956415632439
 40
0.7901119044833971
 40
0.8889618007244524
 40
0.9999999999999999
 40
0.9999999999999999
 40
0.9999999999999999
 40
0.9999999999999999
 10
1.0390625
 20
-0.9894301470588236
 30
0.0
 10
1.037028712627213
 20
-0.9878651766144387
 30
0.0
 10
1.033115449415456
 20
-0.9848539762552244
 30
0.0
 10
1.027574500981598
 20
-0.9804579201721723
 30
0.0
 10
1.022593646469987
 20
-0.9763824341206425
 30
0.0
 10
1.018270882575658
 20
-0.972557329264044
 30
0.0
 10
1.014368888626558
 20
-0.9692283236057079
 30
0.0
 10
1.011174593402523
 20
-0.966078187976834
 30
0.0
 10
1.008430920663694
 20
-0.9633733544896008
 30
0.0
 10
1.005629818296025
 20
-0.9600167852562808
 30
0.0
 10
1.002740741465499
 20
-0.9556344029347913
 30
0.0
 10
1.00031682944176
 20
-0.9495878040072762
 30
0.0
 10
0.9985502004662059
 20
-0.9427569711252386
 30
0.0
 10
0.9974872643031012
 20
-0.9350095083288295
 30
0.0
 10
0.9975325720132423
 20
-0.9262390174015779
 30
0.0
 10
0.9988379453084946
 20
-0.9164112303339143
 30
0.0
 10
1.001257312896377
 20
-0.9054672314743906
 30
0.0
 10
1.003703554296357
 20
-0.8979393278052944
 30
0.0
 10
1.004997702205882
 20
-0.8939568014705882
 30
0.0
  0
SPLINE
  5
EE
330
1F
100
AcDbEntity
  8
0
  6
Continuous
 62
     7
370
    25
100
AcDbSpline
210
0.0
220
0.0
230
1.0
 70
     8
 71
     3
 72
    23
 73
    19
 74
     0
 42
0.00000001
 43
0.00000001
 40
0.0
 40
0.0
 40
0.0
 40
0.0
 40
0.0573097445038256
 40
0.1111150361748697
 40
0.1614730429392107
 40
0.2089245589950541
 40
0.2532613232592135
 40
0.29473550484331
 40
0.333171484671305
 40
0.368960957328226
 40
0.438505225304458
 40
0.5099903740033054
 40
0.5841055743509603
 40
0.6617342855460016
 40
0.7423251366288327
 40
0.825100310182418
 40
0.9107503481254957
 40
1.0
 40
1.0
 40
1.0
 40
1.0
 10
1.004997702205882
 20
-0.8939568014705882
 30
0.0
 10
1.006032015435626
 20
-0.8910201757409419
 30
0.0
 10
1.008037394327719
 20
-0.8853264969956122
 30
0.0
 10
1.011260420417884
 20
-0.8771661152338667
 30
0.0
 10
1.014531349779552
 20
-0.8696057899478282
 30
0.0
 10
1.017896162526584
 20
-0.8626515940564699
 30
0.0
 10
1.021418949869027
 20
-0.8563235419623662
 30
0.0
 10
1.024959401033256
 20
-0.8505750441204093
 30
0.0
 10
1.028564955541624
 20
-0.8454185721508576
 30
0.0
 10
1.033587001348215
 20
-0.8394288302333395
 30
0.0
 10
1.04046777792868
 20
-0.8326821060695706
 30
0.0
 10
1.049867690787987
 20
-0.825691387485997
 30
0.0
 10
1.060316336815576
 20
-0.8194890262076766
 30
0.0
 10
1.071882879211535
 20
-0.8143740871906596
 30
0.0
 10
1.084327602977914
 20
-0.8102463962991071
 30
0.0
 10
1.097542260086722
 20
-0.8072692294529037
 30
0.0
 10
1.111449334461989
 20
-0.8054470914434427
 30
0.0
 10
1.120954057815799
 20
-0.8052484325642577
 30
0.0
 10
1.125804227941176
 20
-0.8051470588235293
 30
0.0
  0
SPLINE
  5
EF
330
1F
100
AcDbEntity
  8
0
  6
Continuous
 62
     7
370
    25
100
AcDbSpline
210
0.0
220
0.0
230
1.0
 70
     8
 71
     3
 72
    31
 73
    27
 74
     0
 42
0.00000001
 43
0.00000001
 40
0.0
 40
0.0
 40
0.0
 40
0.0
 40
0.0551498325459446
 40
0.1075873508379619
 40
0.1570951114741549
 40
0.204453910057423
 40
0.2492258035041544
 40
0.291819686582895
 40
0.3325533875295362
 40
0.371686080599978
 40
0.4087574704280558
 40
0.4428966978411835
 40
0.4748825297169574
 40
0.5051239320089352
 40
0.5340597164621889
 40
0.5615817565287466
 40
0.5891298852167389
 40
0.6164773651285185
 40
0.6465095368323802
 40
0.6812903566756543
 40
0.7207379284135994
 40
0.7657321133259911
 40
0.8161330428188646
 40
0.8718544810114561
 40
0.9331617346722246
 40
1.0
 40
1.0
 40
1.0
 40
1.0
 10
1.125804227941176
 20
-0.8051470588235294
 30
0.0
 10
1.128446905111607
 20
-0.805186797314093
 30
0.0
 10
1.133602290409465
 20
-0.8052643199234769
 30
0.0
 10
1.1411264288369
 20
-0.8056726950310638
 30
0.0
 10
1.148222846601942
 20
-0.8066068421957405
 30
0.0
 10
1.154941615128
 20
-0.8076068706566774
 30
0.0
 10
1.161218028264583
 20
-0.8091499150677669
 30
0.0
 10
1.167105690335647
 20
-0.8109006073724353
 30
0.0
 10
1.172584184591288
 20
-0.8130264686299382
 30
0.0
 10
1.177624098049675
 20
-0.8154934313982137
 30
0.0
 10
1.18218207751517
 20
-0.8181787588267656
 30
0.0
 10
1.186280792486559
 20
-0.8209672220096498
 30
0.0
 10
1.189710960590543
 20
-0.8240704155467498
 30
0.0
 10
1.192774573585637
 20
-0.8271985372040223
 30
0.0
 10
1.195177840918432
 20
-0.8306079011974992
 30
0.0
 10
1.197071054149753
 20
-0.8341748858339321
 30
0.0
 10
1.19837681150334
 20
-0.8379163662802194
 30
0.0
 10
1.199228671973283
 20
-0.8419106052598132
 30
0.0
 10
1.19946096826983
 20
-0.8463336267156498
 30
0.0
 10
1.199289857726324
 20
-0.8513337089620318
 30
0.0
 10
1.19851796738321
 20
-0.8570004035980593
 30
0.0
 10
1.197465921485525
 20
-0.8633785456685952
 30
0.0
 10
1.195787418468477
 20
-0.8704275595979084
 30
0.0
 10
1.193808732248874
 20
-0.8782043221063969
 30
0.0
 10
1.191248998102236
 20
-0.8866393291515062
 30
0.0
 10
1.189313662290009
 20
-0.8924677953766273
 30
0.0
 10
1.188304227941176
 20
-0.8955078125
 30
0.0
  0
LINE
  5
F0
330
1F
100
AcDbEntity
  8
0
  6
Continuous
 62
     7
370
    25
100
AcDbLine
 10
0.3722426471
 20
-1.125
 30
0.0
 11
0.4784581801
 21
-0.8125
 31
0.0
  0
LINE
  5
F1
330
1F
100
AcDbEntity
  8
0
  6
Continuous
 62
     7
370
    25
100
AcDbLine
 10
0.4784581801
 20
-0.8125
 30
0.0
 11
0.6181640625
 21
-0.8125
 31
0.0
  0
LINE
  5
F2
330
1F
100
AcDbEntity
  8
0
  6
Continuous
 62
     7
370
    25
100
AcDbLine
 10
0.6181640625
 20
-0.8125
 30
0.0
 11
0.5969094669
 21
-0.875
 31
0.0
  0
LINE
  5
F3
330
1F
100
AcDbEntity
  8
0
  6
Continuous
 62
     7
370
    25
100
AcDbLine
 10
0.5969094669
 20
-0.875
 30
0.0
 11
0.5380859375
 21
-0.875
 31
0.0
  0
LINE
  5
F4
330
1F
100
AcDbEntity
  8
0
  6
Continuous
 62
     7
370
    25
100
AcDbLine
 10
0.5380859375
 20
-0.875
 30
0.0
 11
0.5180951287
 21
-0.9338235294
 31
0.0
  0
LINE
  5
F5
330
1F
100
AcDbEntity
  8
0
  6
Continuous
 62
     7
370
    25
100
AcDbLine
 10
0.5180951287
 20
-0.9338235294
 30
0.0
 11
0.5732421875
 21
-0.9338235294
 31
0.0
  0
LINE
  5
F6
330
1F
100
AcDbEntity
  8
0
  6
Continuous
 62
     7
370
    25
100
AcDbLine
 10
0.5732421875
 20
-0.9338235294
 30
0.0
 11
0.5532513787
 21
-0.9926470588
 31
0.0
  0
LINE
  5
F7
330
1F
100
AcDbEntity
  8
0
  6
Continuous
 62
     7
370
    25
100
AcDbLine
 10
0.5532513787
 20
-0.9926470588
 30
0.0
 11
0.4981043199
 21
-0.9926470588
 31
0.0
  0
LINE
  5
F8
330
1F
100
AcDbEntity
  8
0
  6
Continuous
 62
     7
370
    25
100
AcDbLine
 10
0.4981043199
 20
-0.9926470588
 30
0.0
 11
0.4743795956
 21
-1.0625
 31
0.0
  0
LINE
  5
F9
330
1F
100
AcDbEntity
  8
0
  6
Continuous
 62
     7
370
    25
100
AcDbLine
 10
0.4743795956
 20
-1.0625
 30
0.0
 11
0.5368795956
 21
-1.0625
 31
0.0
  0
LINE
  5
FA
330
1F
100
AcDbEntity
  8
0
  6
Continuous
 62
     7
370
    25
100
AcDbLine
 10
0.5368795956
 20
-1.0625
 30
0.0
 11
0.515625
 21
-1.125
 31
0.0
  0
LINE
  5
FB
330
1F
100
AcDbEntity
  8
0
  6
Continuous
 62
     7
370
    25
100
AcDbLine
 10
0.515625
 20
-1.125
 30
0.0
 11
0.3722426471
 21
-1.125
 31
0.0
  0
LINE
  5
FC
330
1F
100
AcDbEntity
  8
0
  6
Continuous
 62
     7
370
    25
100
AcDbLine
 10
-0.0573874081
 20
-0.8125
 30
0.0
 11
0.1190831801
 21
-0.8125
 31
0.0
  0
LINE
  5
FD
330
1F
100
AcDbEntity
  8
0
  6
Continuous
 62
     7
370
    25
100
AcDbLine
 10
0.1190831801
 20
-0.8125
 30
0.0
 11
0.0978285846
 21
-0.875
 31
0.0
  0
LINE
  5
FE
330
1F
100
AcDbEntity
  8
0
  6
Continuous
 62
     7
370
    25
100
AcDbLine
 10
0.0978285846
 20
-0.875
 30
0.0
 11
0.0500344669
 21
-0.875
 31
0.0
  0
LINE
  5
FF
330
1F
100
AcDbEntity
  8
0
  6
Continuous
 62
     7
370
    25
100
AcDbLine
 10
0.0500344669
 20
-0.875
 30
0.0
 11
-0.0349264706
 21
-1.125
 31
0.0
  0
LINE
  5
100
330
1F
100
AcDbEntity
  8
0
  6
Continuous
 62
     7
370
    25
100
AcDbLine
 10
-0.0349264706
 20
-1.125
 30
0.0
 11
-0.1158088235
 21
-1.125
 31
0.0
  0
LINE
  5
101
330
1F
100
AcDbEntity
  8
0
  6
Continuous
 62
     7
370
    25
100
AcDbLine
 10
-0.1158088235
 20
-1.125
 30
0.0
 11
-0.030847886
 21
-0.875
 31
0.0
  0
LINE
  5
102
330
1F
100
AcDbEntity
  8
0
  6
Continuous
 62
     7
370
    25
100
AcDbLine
 10
-0.030847886
 20
-0.875
 30
0.0
 11
-0.0786420037
 21
-0.875
 31
0.0
  0
LINE
  5
103
330
1F
100
AcDbEntity
  8
0
  6
Continuous
 62
     7
370
    25
100
AcDbLine
 10
-0.0786420037
 20
-0.875
 30
0.0
 11
-0.0573874081
 21
-0.8125
 31
0.0
  0
LINE
  5
104
330
1F
100
AcDbEntity
  8
0
  6
Continuous
 62
     7
370
    25
100
AcDbLine
 10
-0.5049977022
 20
-0.8125
 30
0.0
 11
-0.4241153493
 21
-0.8125
 31
0.0
  0
LINE
  5
105
330
1F
100
AcDbEntity
  8
0
  6
Continuous
 62
     7
370
    25
100
AcDbLine
 10
-0.4241153493
 20
-0.8125
 30
0.0
 11
-0.5303308824
 21
-1.125
 31
0.0
  0
LINE
  5
106
330
1F
100
AcDbEntity
  8
0
  6
Continuous
 62
     7
370
    25
100
AcDbLine
 10
-0.5303308824
 20
-1.125
 30
0.0
 11
-0.6112132353
 21
-1.125
 31
0.0
  0
LINE
  5
107
330
1F
100
AcDbEntity
  8
0
  6
Continuous
 62
     7
370
    25
100
AcDbLine
 10
-0.6112132353
 20
-1.125
 30
0.0
 11
-0.5049977022
 21
-0.8125
 31
0.0
  0
LINE
  5
108
330
1F
100
AcDbEntity
  8
0
  6
Continuous
 62
     7
370
    25
100
AcDbLine
 10
-1.2352941176
 20
-1.125
 30
0.0
 11
-1.1290785846
 21
-0.8125
 31
0.0
  0
LINE
  5
109
330
1F
100
AcDbEntity
  8
0
  6
Continuous
 62
     7
370
    25
100
AcDbLine
 10
-1.1290785846
 20
-0.8125
 30
0.0
 11
-1.0673253676
 21
-0.8125
 31
0.0
  0
SPLINE
  5
10A
330
1F
100
AcDbEntity
  8
0
  6
Continuous
 62
     7
370
    25
100
AcDbSpline
210
0.0
220
0.0
230
1.0
 70
     8
 71
     3
 72
    35
 73
    31
 74
     0
 42
0.00000001
 43
0.00000001
 40
0.0
 40
0.0
 40
0.0
 40
0.0
 40
0.0707339749217447
 40
0.1352334823957526
 40
0.1935017513305434
 40
0.2458477484791414
 40
0.2914725931432339
 40
0.3312190376447637
 40
0.3648906084346156
 40
0.3925914292749366
 40
0.4164008253136432
 40
0.4390837666146491
 40
0.4602998136569245
 40
0.4801765885491213
 40
0.4992113914949252
 40
0.517293952254977
 40
0.5350432068603405
 40
0.5525383151938078
 40
0.5870057229056409
 40
0.6209719784987521
 40
0.656005986251998
 40
0.6927839883196526
 40
0.7141780540513455
 40
0.7404310925634838
 40
0.7715039767382575
 40
0.8072855094452935
 40
0.8481807233685756
 40
0.8938179471066242
 40
0.9445743303222046
 40
1.0
 40
1.0
 40
1.0
 40
1.0
 10
-1.067325367647059
 20
-0.8125
 30
0.0
 10
-1.062557221218184
 20
-0.812498339235823
 30
0.0
 10
-1.053441191094567
 20
-0.8124951640866339
 30
0.0
 10
-1.040400831271801
 20
-0.8128171233328567
 30
0.0
 10
-1.028603376283887
 20
-0.8131972567179965
 30
0.0
 10
-1.01808276127134
 20
-0.8137230779489312
 30
0.0
 10
-1.008835875640807
 20
-0.8145584923231682
 30
0.0
 10
-1.000858570500196
 20
-0.8154334752957928
 30
0.0
 10
-0.9941203522531387
 20
-0.8164889892014199
 30
0.0
 10
-0.9885180364671488
 20
-0.8177687675638561
 30
0.0
 10
-0.9837337996356991
 20
-0.8192449532226417
 30
0.0
 10
-0.9795037717203766
 20
-0.8209728928405398
 30
0.0
 10
-0.975642483190204
 20
-0.8228668529547466
 30
0.0
 10
-0.9721367771709014
 20
-0.8249178100805091
 30
0.0
 10
-0.9691031873540004
 20
-0.8272910091107238
 30
0.0
 10
-0.9664198398616661
 20
-0.8298429223561832
 30
0.0
 10
-0.9640961937567435
 20
-0.8326000177646233
 30
0.0
 10
-0.96159900556219
 20
-0.8365940747730135
 30
0.0
 10
-0.9592758396786418
 20
-0.8419346238044878
 30
0.0
 10
-0.9575611142036036
 20
-0.8487281061000572
 30
0.0
 10
-0.9570684497447953
 20
-0.8558773705792624
 30
0.0
 10
-0.9576402450138662
 20
-0.8621576948032263
 30
0.0
 10
-0.958732941591422
 20
-0.8677449726605436
 30
0.0
 10
-0.9599738574296354
 20
-0.8729044911751593
 30
0.0
 10
-0.9614850458891161
 20
-0.8789971720500207
 30
0.0
 10
-0.9635761990757173
 20
-0.8859541289637606
 30
0.0
 10
-0.9658629738805291
 20
-0.8938759015548177
 30
0.0
 10
-0.9687564403459213
 20
-0.9026674205253222
 30
0.0
 10
-0.9718617125169176
 20
-0.9124185349648367
 30
0.0
 10
-0.974157688220203
 20
-0.9191979204998774
 30
0.0
 10
-0.9753561580882357
 20
-0.9227366727941178
 30
0.0
  0
LINE
  5
10B
330
1F
100
AcDbEntity
  8
0
  6
Continuous
 62
     7
370
    25
100
AcDbLine
 10
-0.9753561581
 20
-0.9227366728
 30
0.0
 11
-1.0125804228
 21
-1.0321691176
 31
0.0
  0
SPLINE
  5
10C
330
1F
100
AcDbEntity
  8
0
  6
Continuous
 62
     7
370
    25
100
AcDbSpline
210
0.0
220
0.0
230
1.0
 70
     8
 71
     3
 72
    31
 73
    27
 74
     0
 42
0.00000001
 43
0.00000001
 40
0.0
 40
0.0
 40
0.0
 40
0.0
 40
0.0631778604967051
 40
0.1215155797234966
 40
0.1742626053521138
 40
0.2219934564767188
 40
0.2646073034248599
 40
0.3018216417348539
 40
0.3342949263684119
 40
0.3614836944067401
 40
0.4099945959211869
 40
0.4563995707466867
 40
0.5017584726559783
 40
0.5466978166201062
 40
0.5912658297933188
 40
0.6361249364198426
 40
0.6822662088069698
 40
0.7293116255762231
 40
0.7545888392416871
 40
0.7821174269738855
 40
0.8119709919918391
 40
0.8444442766253973
 40
0.8796164872028709
 40
0.9171541912011744
 40
0.9573861530518594
 40
1.0
 40
1.0
 40
1.0
 40
1.0
 10
-1.012580422794118
 20
-1.032169117647059
 30
0.0
 10
-1.013740148004252
 20
-1.035523025005624
 30
0.0
 10
-1.015970750308944
 20
-1.041973892347613
 30
0.0
 10
-1.019302025373184
 20
-1.051177855380377
 30
0.0
 10
-1.022376685169406
 20
-1.059552747392927
 30
0.0
 10
-1.025377326035639
 20
-1.06700970895967
 30
0.0
 10
-1.028157890031425
 20
-1.073614472406481
 30
0.0
 10
-1.030826649675012
 20
-1.079330652471638
 30
0.0
 10
-1.033243198454802
 20
-1.084208789004637
 30
0.0
 10
-1.036295805934847
 20
-1.089466317475386
 30
0.0
 10
-1.040199163854547
 20
-1.09512126107894
 30
0.0
 10
-1.045346719967153
 20
-1.101107862218065
 30
0.0
 10
-1.051011088231286
 20
-1.106318668618387
 30
0.0
 10
-1.057176137863744
 20
-1.110754320176141
 30
0.0
 10
-1.063791219856257
 20
-1.114412779952943
 30
0.0
 10
-1.070736122229838
 20
-1.117557108013835
 30
0.0
 10
-1.078083701084461
 20
-1.120071645908708
 30
0.0
 10
-1.084554829927619
 20
-1.12165745032214
 30
0.0
 10
-1.090078538479027
 20
-1.122640685922503
 30
0.0
 10
-1.094682942461282
 20
-1.123241487739834
 30
0.0
 10
-1.099693597469156
 20
-1.123857993670236
 30
0.0
 10
-1.105160607752973
 20
-1.124210831655495
 30
0.0
 10
-1.111057938504696
 20
-1.124555767407061
 30
0.0
 10
-1.117394918166814
 20
-1.124875903213474
 30
0.0
 10
-1.124157388583023
 20
-1.124947372846566
 30
0.0
 10
-1.128810564726517
 20
-1.124982124568664
 30
0.0
 10
-1.131204044117647
 20
-1.125
 30
0.0
  0
LINE
  5
10D
330
1F
100
AcDbEntity
  8
0
  6
Continuous
 62
     7
370
    25
100
AcDbLine
 10
-1.1312040441
 20
-1.125
 30
0.0
 11
-1.2352941176
 21
-1.125
 31
0.0
  0
MTEXT
  5
10F
330
1F
100
AcDbEntity
  8
0
  6
Continuous
 62
     7
100
AcDbMText
 10
-2.25
 20
-1.2901404091
 30
0.0
 40
0.1903
 41
0.0
 71
     1
 72
     1
  1
SOLIDWORKS Educational Product.
  7
SLDTEXTSTYLE0
 73
     1
 44
1.0
  0
MTEXT
  5
110
330
1F
100
AcDbEntity
  8
0
  6
Continuous
 62
     7
100
AcDbMText
 10
-2.25
 20
-1.5755904091
 30
0.0
 40
0.1903
 41
0.0
 71
     1
 72
     1
  1
For Instructional Use Only.
  7
SLDTEXTSTYLE0
 73
     1
 44
1.0
  0
ENDSEC
  0
SECTION
  2
OBJECTS
  0
DICTIONARY
  5
C
330
0
100
AcDbDictionary
281
     1
  3
ACAD_GROUP
350
D
  3
ACAD_LAYOUT
350
1A
  3
ACAD_MLINESTYLE
350
17
  3
ACAD_PLOTSETTINGS
350
19
  3
ACAD_PLOTSTYLENAME
350
E
  3
ACAD_SCALELIST
350
47
  3
DWGPROPS
350
111
  0
DICTIONARY
  5
D
102
{ACAD_REACTORS
330
C
102
}
330
C
100
AcDbDictionary
281
     1
  0
DICTIONARY
  5
1A
102
{ACAD_REACTORS
330
C
102
}
330
C
100
AcDbDictionary
281
     1
  3
Layout1
350
1E
  3
Layout2
350
26
  3
Model
350
22
  0
DICTIONARY
  5
17
102
{ACAD_REACTORS
330
C
102
}
330
C
100
AcDbDictionary
281
     1
  3
Standard
350
18
  0
DICTIONARY
  5
19
102
{ACAD_REACTORS
330
C
102
}
330
C
100
AcDbDictionary
281
     1
  0
ACDBDICTIONARYWDFLT
  5
E
102
{ACAD_REACTORS
330
C
102
}
330
C
100
AcDbDictionary
281
     1
  3
Normal
350
F
100
AcDbDictionaryWithDefault
340
F
  0
DICTIONARY
  5
47
102
{ACAD_REACTORS
330
C
102
}
330
C
100
AcDbDictionary
281
     1
  3
A0
350
48
  3
A1
350
49
  3
A2
350
4A
  3
A3
350
4B
  3
A4
350
4C
  3
A5
350
4D
  3
A6
350
4E
  3
A7
350
4F
  3
A8
350
50
  3
A9
350
51
  3
B1
350
52
  3
B2
350
53
  3
B3
350
54
  3
B4
350
55
  3
B5
350
56
  3
B6
350
57
  3
B7
350
58
  0
XRECORD
  5
111
102
{ACAD_REACTORS
330
C
102
}
330
C
100
AcDbXrecord
280
     1
  1
DWGPROPS COOKIE
  2

  3

  4

  6

  7

  8
Team 171
  9

300
=
301
=
302
=
303
=
304
=
305
=
306
=
307
=
308
=
309
=
 40
0.0
 41
2460641.918633507
 42
2460641.918705105
  1

 90
        0
  0
LAYOUT
  5
1E
102
{ACAD_REACTORS
330
1A
102
}
330
1A
100
AcDbPlotSettings
  1

  2
none_device
  4

  6

 40
0.0
 41
0.0
 42
0.0
 43
0.0
 44
0.0
 45
0.0
 46
0.0
 47
0.0
 48
0.0
 49
0.0
140
0.0
141
0.0
142
1.0
143
1.0
 70
   688
 72
     0
 73
     0
 74
     5
  7

 75
    16
147
1.0
148
0.0
149
0.0
100
AcDbLayout
  1
Layout1
 70
     1
 71
     1
 10
0.0
 20
0.0
 11
12.0
 21
9.0
 12
0.0
 22
0.0
 32
0.0
 14
1.0000000000E+20
 24
1.0000000000E+20
 34
1.0000000000E+20
 15
-1.0000000000E+20
 25
-1.0000000000E+20
 35
-1.0000000000E+20
146
0.0
 13
0.0
 23
0.0
 33
0.0
 16
1.0
 26
0.0
 36
0.0
 17
0.0
 27
1.0
 37
0.0
 76
     0
330
1B
  0
LAYOUT
  5
26
102
{ACAD_REACTORS
330
1A
102
}
330
1A
100
AcDbPlotSettings
  1

  2
none_device
  4

  6

 40
0.0
 41
0.0
 42
0.0
 43
0.0
 44
0.0
 45
0.0
 46
0.0
 47
0.0
 48
0.0
 49
0.0
140
0.0
141
0.0
142
1.0
143
1.0
 70
   688
 72
     0
 73
     0
 74
     5
  7

 75
    16
147
1.0
148
0.0
149
0.0
100
AcDbLayout
  1
Layout2
 70
     1
 71
     2
 10
0.0
 20
0.0
 11
0.0
 21
0.0
 12
0.0
 22
0.0
 32
0.0
 14
0.0
 24
0.0
 34
0.0
 15
0.0
 25
0.0
 35
0.0
146
0.0
 13
0.0
 23
0.0
 33
0.0
 16
1.0
 26
0.0
 36
0.0
 17
0.0
 27
1.0
 37
0.0
 76
     0
330
23
  0
LAYOUT
  5
22
102
{ACAD_REACTORS
330
1A
102
}
330
1A
100
AcDbPlotSettings
  1

  2
none_device
  4
ANSI_A_(11.00_x_8.50_Inches)
  6

 40
6.35
 41
19.05
 42
6.35000508
 43
19.05000254
 44
279.4
 45
215.9
 46
133.34999746
 47
88.89999873
 48
0.0
 49
0.0
140
0.0
141
0.0
142
2.42
143
1.0
 70
  1696
 72
     0
 73
     0
 74
     0
  7

 75
     0
147
0.5913241897
148
-39.4088153714
149
0.0
100
AcDbLayout
  1
Model
 70
     1
 71
     0
 10
0.0
 20
0.0
 11
12.0
 21
9.0
 12
0.0
 22
0.0
 32
0.0
 14
-2.25
 24
-1.25
 34
0.0
 15
2.25
 25
1.25
 35
0.0
146
0.0
 13
0.0
 23
0.0
 33
0.0
 16
1.0
 26
0.0
 36
0.0
 17
0.0
 27
1.0
 37
0.0
 76
     0
330
1F
331
29
  0
MLINESTYLE
  5
18
102
{ACAD_REACTORS
330
17
102
}
330
17
100
AcDbMlineStyle
  2
Standard
 70
     0
  3

 62
   256
 51
90.0
 52
90.0
 71
     2
 49
0.5
 62
   256
  6
BYLAYER
 49
-0.5
 62
   256
  6
BYLAYER
  0
ACDBPLACEHOLDER
  5
F
102
{ACAD_REACTORS
330
E
102
}
330
E
  0
SCALE
  5
48
102
{ACAD_REACTORS
330
47
102
}
330
47
100
AcDbScale
 70
     0
300
1:1
140
1.0
141
1.0
290
     1
  0
SCALE
  5
49
102
{ACAD_REACTORS
330
47
102
}
330
47
100
AcDbScale
 70
     0
300
1/128" = 1'-0"
140
0.0078125
141
12.0
290
     0
  0
SCALE
  5
4A
102
{ACAD_REACTORS
330
47
102
}
330
47
100
AcDbScale
 70
     0
300
1/64" = 1'-0"
140
0.015625
141
12.0
290
     0
  0
SCALE
  5
4B
102
{ACAD_REACTORS
330
47
102
}
330
47
100
AcDbScale
 70
     0
300
1/32" = 1'-0"
140
0.03125
141
12.0
290
     0
  0
SCALE
  5
4C
102
{ACAD_REACTORS
330
47
102
}
330
47
100
AcDbScale
 70
     0
300
1/16" = 1'-0"
140
0.0625
141
12.0
290
     0
  0
SCALE
  5
4D
102
{ACAD_REACTORS
330
47
102
}
330
47
100
AcDbScale
 70
     0
300
3/32" = 1'-0"
140
0.09375
141
12.0
290
     0
  0
SCALE
  5
4E
102
{ACAD_REACTORS
330
47
102
}
330
47
100
AcDbScale
 70
     0
300
1/8" = 1'-0"
140
0.125
141
12.0
290
     0
  0
SCALE
  5
4F
102
{ACAD_REACTORS
330
47
102
}
330
47
100
AcDbScale
 70
     0
300
3/16" = 1'-0"
140
0.1875
141
12.0
290
     0
  0
SCALE
  5
50
102
{ACAD_REACTORS
330
47
102
}
330
47
100
AcDbScale
 70
     0
300
1/4" = 1'-0"
140
0.25
141
12.0
290
     0
  0
SCALE
  5
51
102
{ACAD_REACTORS
330
47
102
}
330
47
100
AcDbScale
 70
     0
300
3/8" = 1'-0"
140
0.375
141
12.0
290
     0
  0
SCALE
  5
52
102
{ACAD_REACTORS
330
47
102
}
330
47
100
AcDbScale
 70
     0
300
1/2" = 1'-0"
140
0.5
141
12.0
290
     0
  0
SCALE
  5
53
102
{ACAD_REACTORS
330
47
102
}
330
47
100
AcDbScale
 70
     0
300
3/4" = 1'-0"
140
0.75
141
12.0
290
     0
  0
SCALE
  5
54
102
{ACAD_REACTORS
330
47
102
}
330
47
100
AcDbScale
 70
     0
300
1" = 1'-0"
140
1.0
141
12.0
290
     0
  0
SCALE
  5
55
102
{ACAD_REACTORS
330
47
102
}
330
47
100
AcDbScale
 70
     0
300
1-1/2" = 1'-0"
140
1.5
141
12.0
290
     0
  0
SCALE
  5
56
102
{ACAD_REACTORS
330
47
102
}
330
47
100
AcDbScale
 70
     0
300
3" = 1'-0"
140
3.0
141
12.0
290
     0
  0
SCALE
  5
57
102
{ACAD_REACTORS
330
47
102
}
330
47
100
AcDbScale
 70
     0
300
6" = 1'-0"
140
6.0
141
12.0
290
     0
  0
SCALE
  5
58
102
{ACAD_REACTORS
330
47
102
}
330
47
100
AcDbScale
 70
     0
300
1'-0" = 1'-0"
140
12.0
141
12.0
290
     0
  0
ENDSEC
  0
EOF
